<?xml version="1.0" encoding="UTF-8"?>
<svg xmlns="http://www.w3.org/2000/svg" xmlns:xlink="http://www.w3.org/1999/xlink" width="147px" height="42px" viewBox="0 0 147 42">
  <!-- Generator: Sketch 52.3 (67297) - http://www.bohemiancoding.com/sketch -->
  <title>accenture</title>
  <desc>Created with Sketch.</desc>
  <defs>
    <polygon id="path-1" points="0 0.201425 14.9570731 0.201425 14.9570731 20.125 0 20.125"></polygon>
    <polygon id="path-3" points="0.495926946 0.201425 16.0039868 0.201425 16.0039868 20.125 0.495926946 20.125"></polygon>
    <polygon id="path-5" points="0.462653892 0.626675 15.8483605 0.626675 15.8483605 20.125 0.462653892 20.125"></polygon>
    <polygon id="path-7" points="0.386073054 0.201425 15.8325162 0.201425 15.8325162 20.125 0.386073054 20.125"></polygon>
  </defs>
  <g id="Visual-Design" stroke="none" stroke-width="1" fill="none" fill-rule="evenodd">
    <g id="home" transform="translate(-1003.000000, -1962.000000)">
      <g id="Group-13" transform="translate(115.000000, 1853.000000)">
        <g id="accenture" transform="translate(888.000000, 109.000000)">
          <g id="Group-3" transform="translate(0.000000, 21.673925)">
            <mask id="mask-2" fill="white">
              <use xlink:href="#path-1"></use>
            </mask>
            <g id="Clip-2"></g>
            <path d="M14.9561497,19.69905 L14.9561497,6.1103 C15.0168862,1.7248 12.0751257,0.201425 8.02954491,0.201425 C4.04558084,0.201425 0.73588024,1.9068 0.73588024,6.2328 L5.08778443,6.2328 C5.08778443,4.34455 6.12998802,3.307675 8.02954491,3.307675 C10.2371856,3.307675 10.7265988,4.891425 10.7265988,6.78055 L10.7265988,8.67055 C6.37469461,8.7913 0.0616167665,9.4003 0,15.12805 C0.0616167665,18.3568 2.63631737,20.125175 5.63969461,20.125175 C7.78483832,20.125175 9.68439521,19.39455 10.6051257,17.505425 L10.7265988,17.505425 L10.7265988,19.69905 L14.9561497,19.69905 Z M10.7265988,11.2903 C10.7265988,13.7263 9.74601198,16.957675 6.74263473,17.017175 C5.27175449,16.957675 4.35278443,16.2253 4.35278443,14.701925 C4.35278443,11.8398 8.58145509,11.2903 10.7265988,11.2903 Z" id="Fill-1" fill="#231F20" mask="url(#mask-2)"></path>
          </g>
          <path d="M28.1970647,28.820925 C28.1970647,26.871425 27.6442743,24.981425 25.3160407,24.981425 C22.4957533,24.981425 21.6991365,27.907425 21.6375198,30.222675 C21.6991365,34.9748 24.4569269,38.631425 29.5447114,38.690925 C30.6485317,38.631425 31.6898551,38.50805 32.7320587,38.20355 L32.7320587,40.885425 C30.9548551,41.433175 29.054418,41.798925 27.1539808,41.798925 C20.3506096,41.798925 16.9176754,37.59455 16.9176754,31.01455 C16.9176754,25.469675 19.9210527,21.875175 25.6831006,21.875175 C30.3422084,21.875175 32.9767653,24.129175 32.9767653,28.820925 L28.1970647,28.820925 Z" id="Fill-4" fill="#231F20"></path>
          <path d="M45.3591826,28.820925 C45.3591826,26.871425 44.8081527,24.981425 42.4781587,24.981425 C39.6587515,24.981425 38.800518,27.907425 38.800518,30.222675 C38.800518,34.9748 41.6199251,38.631425 46.6469731,38.690925 C47.7499132,38.631425 48.8537335,38.50805 49.8950569,38.20355 L49.8950569,40.885425 C48.1178533,41.433175 46.2174162,41.798925 44.3178593,41.798925 C37.5127275,41.798925 34.0806737,37.59455 34.0806737,31.01455 C34.0806737,25.469675 37.0840509,21.875175 42.8460988,21.875175 C47.5052066,21.875175 50.0790269,24.129175 50.0790269,28.820925 L45.3591826,28.820925 Z" id="Fill-6" fill="#231F20"></path>
          <g id="Group-10" transform="translate(51.053892, 21.673925)">
            <mask id="mask-4" fill="white">
              <use xlink:href="#path-3"></use>
            </mask>
            <g id="Clip-9"></g>
            <path d="M16.0039868,9.0363 L16.0039868,7.939925 C16.0039868,3.246425 13.6141365,0.201425 8.71032216,0.201425 C3.00901078,0.201425 0.557543713,3.734675 0.495926946,9.157925 C0.557543713,15.43255 3.3769509,20.125175 10.1812024,20.125175 C12.0200228,20.125175 13.7981066,19.881925 15.5145737,19.3333 L15.5145737,16.28655 C14.4107533,16.653175 13.0622263,16.957675 11.8369329,17.017175 C7.54576527,16.957675 4.66474132,13.0578 4.66474132,9.0363 L16.0039868,9.0363 Z M11.7744359,6.3553 L4.78709461,6.3553 C5.03268144,4.4058 6.50356168,3.064425 8.40311856,3.064425 C10.4866455,3.064425 11.7744359,4.282425 11.7744359,6.3553 Z" id="Fill-8" fill="#231F20" mask="url(#mask-4)"></path>
          </g>
          <path d="M80.2984419,41.372975 L80.2984419,30.465225 C80.2984419,29.551725 80.3591784,27.11485 79.6241784,26.384225 C79.3178551,26.079725 78.7650647,26.018475 78.336388,26.018475 C75.0883042,26.018475 73.801394,30.52735 73.801394,33.1471 L73.801394,41.372975 L69.3262563,41.372975 L69.3262563,22.3006 L73.801394,22.3006 L73.801394,25.89685 L73.8621305,25.89685 C74.9043341,23.4591 76.8655078,21.87535 79.5625617,21.87535 C83.2402024,21.87535 84.7726994,24.86085 84.7726994,28.149975 L84.7726994,41.372975 L80.2984419,41.372975 Z" id="Fill-11" fill="#231F20"></path>
          <path d="M94.0289461,25.40895 L94.0289461,34.4267 C94.0289461,36.61945 94.2727725,38.63195 97.0323234,38.69145 C97.7682036,38.63195 98.4415868,38.508575 99.1158503,38.32745 L99.1158503,41.494075 C97.8896766,41.677825 96.6643832,41.798575 95.4390898,41.798575 C91.5765988,41.798575 89.6145449,40.519325 89.5538084,36.559075 L89.5538084,25.40895 L85.8145509,25.40895 L85.8145509,22.30095 L89.5538084,22.30095 L89.5538084,17.792075 L94.0289461,16.02545 L94.0289461,22.30095 L99.728497,22.30095 L99.728497,25.40895 L94.0289461,25.40895 Z" id="Fill-13" fill="#231F20"></path>
          <g id="Group-17" transform="translate(101.227545, 21.673925)">
            <mask id="mask-6" fill="white">
              <use xlink:href="#path-5"></use>
            </mask>
            <g id="Clip-16"></g>
            <path d="M11.3732228,19.69905 L11.3732228,16.103675 L11.3124862,16.103675 C10.3310192,18.480175 8.36984551,20.125175 5.61205509,20.125175 C1.99603114,20.125175 0.462653892,17.0793 0.462653892,13.849675 L0.462653892,0.626675 L4.93779162,0.626675 L4.93779162,11.532675 C4.93779162,12.4488 4.87705509,14.885675 5.61205509,15.615425 C5.91925868,15.9208 6.46940838,15.9208 6.89896527,15.98205 C10.0871928,15.9208 11.3732228,11.41105 11.3732228,8.914675 L11.3732228,0.626675 L15.8483605,0.626675 L15.8483605,19.69905 L11.3732228,19.69905 Z" id="Fill-15" fill="#231F20" mask="url(#mask-6)"></path>
          </g>
          <path d="M124.369746,33.025475 L124.369746,41.372975 L119.894608,41.372975 L119.894608,22.3006 L124.369746,22.3006 L124.369746,25.834725 L124.432243,25.834725 C125.96386,23.214975 127.43474,21.87535 130.622087,21.87535 L130.622087,26.50585 C126.086213,26.50585 124.369746,28.5166 124.369746,33.025475" id="Fill-18" fill="#231F20"></path>
          <g id="Group-22" transform="translate(131.155689, 21.673925)">
            <mask id="mask-8" fill="white">
              <use xlink:href="#path-7"></use>
            </mask>
            <g id="Clip-21"></g>
            <path d="M15.8325162,9.0363 L15.8325162,7.939925 C15.8325162,3.246425 13.4426659,0.201425 8.59958802,0.201425 C2.89915689,0.201425 0.386073054,3.734675 0.386073054,9.157925 C0.386073054,15.43255 3.26797725,20.125175 10.0097317,20.125175 C11.8485521,20.125175 13.6266359,19.881925 15.3422228,19.3333 L15.3422228,16.28655 C14.2392826,16.653175 12.9523725,16.957675 11.7261988,17.017175 C7.37341437,16.957675 4.55400719,13.0578 4.49327066,9.0363 L15.8325162,9.0363 Z M11.6029653,6.3553 L4.61562395,6.3553 C4.86121078,4.4058 6.33209102,3.064425 8.23340838,3.064425 C10.3151749,3.064425 11.664582,4.282425 11.6029653,6.3553 Z" id="Fill-20" fill="#231F20" mask="url(#mask-8)"></path>
          </g>
          <path d="M85.814991,0.000175 L85.814991,3.1073 C85.814991,3.1073 94.7643862,6.5198 96.0512964,7.068425 C94.7643862,7.5558 85.814991,10.967425 85.814991,10.967425 L85.814991,14.075425 L99.7289371,8.470175 L99.7289371,5.6063 L85.814991,0.000175 Z" id="Fill-23" fill="#231F20"></path>
        </g>
      </g>
    </g>
  </g>
</svg>
