<?xml version="1.0" encoding="UTF-8"?>
<svg xmlns="http://www.w3.org/2000/svg" xmlns:xlink="http://www.w3.org/1999/xlink" width="153px" height="39px" viewBox="0 0 153 39">
  <!-- Generator: Sketch 52.5 (67469) - http://www.bohemiancoding.com/sketch -->
  <title>ascension-health-seeklogo.com</title>
  <desc>Created with Sketch.</desc>
  <g id="Visual-Design" stroke="none" stroke-width="1" fill="none" fill-rule="evenodd">
    <g id="Solutions-by-Business-Function" transform="translate(-833.000000, -1176.000000)">
      <g id="ascension-health-seeklogo.com" transform="translate(833.000000, 1176.000000)">
        <path d="M15.045,19.5 C14.96,18.6521739 14.875,17.8043478 14.875,16.9565217 C14.875,11.4456522 17.17,6.10434783 21.25,2.37391304 L21.25,0 L21.25,0.0847826087 C16.065,4.23913043 13.175,10.3434783 13.175,16.9565217 C13.175,18.0586957 13.26,19.076087 13.43,20.1782609 C13.94,19.923913 14.45,19.6695652 15.045,19.5" id="Path" fill="#A72287"></path>
        <path d="M19.89,32.6413043 C16.405,35.3543478 12.24,36.7108696 7.82,36.7108696 C5.865,36.7108696 3.91,36.3717391 1.955,35.8630435 L0,37.05 L0.085,37.05 C2.635,37.9826087 5.185,38.4913043 7.82,38.4913043 C12.75,38.4913043 17.34,36.8804348 21.25,33.8282609 C20.825,33.4043478 20.315,33.0652174 19.89,32.6413043" id="Path" fill="#00AB91"></path>
        <path d="M34.765,36.7108696 C26.35,36.7108696 18.7,31.2847826 15.98,23.3152174 C15.64,24.1630435 15.3,24.926087 14.96,25.6043478 C18.445,33.4043478 26.095,38.4065217 34.765,38.4065217 C37.57,38.4065217 40.205,37.8978261 42.755,36.8804348 L42.84,36.8804348 L40.8,35.7782609 C38.845,36.3717391 36.805,36.7108696 34.765,36.7108696" id="Path" fill="#A72287"></path>
        <path d="M27.71,16.9565217 C27.71,22.4673913 25.415,27.723913 21.335,31.4543478 C21.76,31.8782609 22.27,32.2173913 22.695,32.6413043 C27.03,28.5717391 29.495,22.8913043 29.495,16.9565217 C29.495,10.3434783 26.52,4.23913043 21.335,0.0847826087 L21.25,0 L21.25,2.37391304 C25.415,6.10434783 27.71,11.276087 27.71,16.9565217" id="Path" fill="#00AB91"></path>
        <path d="M40.12,13.226087 C42.5,15.0065217 43.265,16.3630435 43.265,18.2282609 C43.265,19.076087 43.01,20.6021739 41.395,21.7043478 C40.545,22.2130435 39.525,22.5521739 38.25,22.5521739 C37.06,22.5521739 36.21,22.3826087 35.445,22.0434783 C35.02,21.873913 34.935,21.7043478 34.935,21.1956522 C34.935,20.3478261 35.02,19.5 35.02,19.1608696 L35.02,18.9913043 C35.02,18.3978261 35.275,18.3130435 35.445,18.3130435 C35.7,18.3130435 35.87,18.6521739 35.87,18.7369565 C35.87,19.076087 35.955,19.1608696 36.04,19.5 C36.55,21.2804348 38.25,21.3652174 38.59,21.3652174 C40.035,21.3652174 40.97,20.3478261 40.97,19.3304348 C40.97,18.5673913 40.715,17.7195652 39.185,16.5326087 L38.335,15.8543478 C36.295,14.3282609 35.445,12.8869565 35.445,11.276087 C35.445,9.07173913 37.315,7.54565217 40.035,7.54565217 C41.225,7.54565217 41.99,7.71521739 42.585,7.88478261 C42.925,7.96956522 43.01,8.13913043 43.01,8.30869565 C43.01,8.56304348 43.01,8.7326087 42.925,10.2586957 C42.925,10.5130435 42.925,11.0217391 42.5,11.0217391 C42.245,11.0217391 42.16,10.7673913 42.16,10.5978261 L42.16,10.5130435 C42.16,10.3434783 42.075,10.0891304 41.735,9.66521739 C41.31,9.07173913 40.63,8.7326087 39.78,8.7326087 C38.59,8.7326087 37.74,9.49565217 37.74,10.5130435 C37.74,11.276087 38.165,11.8695652 39.695,13.0565217 L40.12,13.226087 Z M102.425,13.226087 L101.915,12.8021739 C100.385,11.7 99.96,11.1065217 99.96,10.2586957 C99.96,9.24130435 100.81,8.47826087 102,8.47826087 C102.765,8.47826087 103.445,8.8173913 103.955,9.41086957 C104.295,9.83478261 104.38,10.0891304 104.38,10.2586957 C104.38,10.4282609 104.465,10.6826087 104.72,10.6826087 C105.06,10.6826087 105.145,10.173913 105.145,9.91956522 C105.23,8.39347826 105.23,8.22391304 105.23,7.96956522 C105.23,7.8 105.145,7.63043478 104.805,7.54565217 C104.21,7.37608696 103.445,7.20652174 102.255,7.20652174 C99.535,7.20652174 97.665,8.7326087 97.665,10.9369565 C97.665,12.6326087 98.515,13.9891304 100.555,15.5152174 L101.405,16.1934783 C103.02,17.3804348 103.19,18.2282609 103.19,18.9913043 C103.19,19.923913 102.255,21.026087 100.81,21.026087 C100.47,21.026087 98.855,20.9413043 98.26,19.1608696 C98.175,18.8217391 98.175,18.7369565 98.09,18.3978261 C98.09,18.2282609 97.92,17.973913 97.665,17.973913 C97.495,17.973913 97.325,18.0586957 97.24,18.6521739 L97.24,18.8217391 C97.24,19.1608696 97.155,20.0086957 97.155,20.8565217 C97.155,21.3652174 97.24,21.5347826 97.665,21.7043478 C98.43,22.0434783 99.28,22.2130435 100.47,22.2130435 C101.745,22.2130435 102.765,21.9586957 103.615,21.3652174 C105.23,20.3478261 105.485,18.7369565 105.485,17.8891304 C105.57,16.2782609 104.72,15.0065217 102.425,13.226087 Z M59.925,18.4826087 C59.585,18.4826087 59.585,18.7369565 59.5,18.9065217 L59.5,18.9913043 C59.415,19.3304348 59.245,19.5847826 58.99,19.923913 C58.31,20.6869565 57.375,21.026087 55.76,21.026087 C53.38,21.026087 50.065,18.7369565 50.065,14.4978261 C50.065,12.3782609 50.575,10.8521739 51.68,9.83478261 C52.615,8.98695652 53.635,8.64782609 55.08,8.64782609 C56.695,8.64782609 58.14,9.24130435 58.735,9.83478261 C59.16,10.2586957 59.33,10.6826087 59.415,11.1065217 C59.415,11.276087 59.5,11.6152174 59.84,11.6152174 C60.265,11.6152174 60.265,11.276087 60.265,11.0217391 L60.265,8.22391304 C60.265,8.05434783 60.18,7.88478261 59.84,7.8 L59.5,7.71521739 C59.075,7.63043478 58.65,7.54565217 58.055,7.46086957 C57.205,7.37608696 56.525,7.29130435 55.335,7.29130435 C52.7,7.29130435 50.745,7.96956522 49.215,9.32608696 C47.175,11.1913043 46.92,13.65 46.92,14.5826087 C46.92,16.9565217 47.77,18.9065217 49.3,20.2630435 C50.915,21.7043478 53.04,22.3826087 55.93,22.3826087 C57.035,22.3826087 58.565,22.2978261 59.415,21.9586957 C59.84,21.7891304 59.925,21.7043478 60.01,21.3652174 C60.18,20.7717391 60.435,19.2456522 60.435,18.9913043 C60.35,18.4826087 60.095,18.4826087 59.925,18.4826087 Z M73.865,19.4152174 C73.695,19.4152174 73.525,19.5 73.44,19.8391304 C73.355,20.4326087 73.1,20.6021739 72.76,20.7717391 C72.42,20.9413043 71.825,20.9413043 71.06,20.9413043 C69.105,20.9413043 68.595,20.6869565 68.595,19.5847826 L68.595,15.176087 C69.275,15.176087 71.315,15.176087 71.57,15.2608696 C72.25,15.3456522 72.675,15.5152174 72.76,15.6847826 C72.845,15.8543478 73.015,16.1086957 73.185,16.1086957 C73.355,16.1086957 73.525,16.023913 73.525,15.5152174 L73.525,13.65 C73.525,13.3956522 73.355,13.226087 73.185,13.226087 C73.015,13.226087 72.93,13.3108696 72.845,13.4804348 C72.845,13.5652174 72.76,13.5652174 72.76,13.65 C72.675,13.8195652 72.25,13.8195652 71.91,13.8195652 L68.595,13.8195652 L68.595,9.07173913 L71.995,9.07173913 C72.93,9.15652174 73.015,9.41086957 73.1,9.58043478 C73.185,9.75 73.185,9.91956522 73.185,10.0043478 C73.185,10.173913 73.355,10.4282609 73.525,10.4282609 C73.695,10.4282609 73.865,10.4282609 73.865,10.0891304 L73.865,8.13913043 C73.865,7.8 73.695,7.71521739 73.525,7.71521739 L64.77,7.71521739 C64.345,7.71521739 64.09,7.88478261 64.09,8.05434783 C64.09,8.30869565 64.26,8.47826087 64.6,8.47826087 C64.77,8.47826087 64.94,8.56304348 65.025,8.56304348 C65.535,8.7326087 65.62,8.8173913 65.62,9.41086957 L65.62,16.7021739 C65.62,18.3978261 65.62,19.923913 65.535,20.6869565 C65.45,21.1956522 65.365,21.45 65.195,21.5347826 C65.025,21.6195652 65.025,21.6195652 64.77,21.6195652 C64.6,21.6195652 64.26,21.7043478 64.26,21.9586957 C64.26,22.0434783 64.345,22.3826087 64.855,22.3826087 L72.675,22.3826087 C73.44,22.3826087 73.695,22.3826087 73.95,21.7043478 C74.035,21.2804348 74.205,20.4326087 74.205,20.0086957 C74.29,19.6695652 74.12,19.4152174 73.865,19.4152174 Z M92.82,7.71521739 L89.675,7.71521739 C89.42,7.71521739 88.995,7.71521739 88.995,8.13913043 C88.995,8.47826087 89.335,8.56304348 89.505,8.56304348 C89.675,8.56304348 89.76,8.56304348 89.93,8.64782609 C90.27,8.8173913 90.44,9.07173913 90.44,10.0891304 L90.61,17.973913 C90.1,17.3804348 88.655,16.023913 87.04,14.4130435 C84.235,11.6152174 80.835,8.13913043 80.665,8.05434783 L80.495,7.88478261 C80.24,7.63043478 80.07,7.46086957 79.815,7.46086957 C79.305,7.46086957 79.305,8.13913043 79.305,8.30869565 L79.22,19.4152174 C79.22,20.9413043 79.135,21.45 78.795,21.5347826 C78.54,21.6195652 78.455,21.6195652 78.37,21.6195652 C77.945,21.6195652 77.86,21.873913 77.86,21.9586957 C77.86,22.3826087 78.285,22.3826087 78.54,22.3826087 L81.77,22.3826087 C82.195,22.3826087 82.45,22.2130435 82.45,21.9586957 C82.45,21.7891304 82.365,21.6195652 81.855,21.6195652 C81.855,21.6195652 81.685,21.6195652 81.43,21.5347826 C81.175,21.3652174 81.005,20.7717391 80.92,19.6695652 L80.75,12.3782609 C81.515,13.226087 89.845,21.45 90.525,22.1282609 C90.78,22.3826087 91.035,22.6369565 91.29,22.6369565 C91.545,22.6369565 91.885,22.3826087 91.885,21.7891304 L91.97,10.0043478 C91.97,8.90217391 92.055,8.7326087 92.395,8.64782609 C92.565,8.64782609 92.565,8.64782609 92.65,8.56304348 C92.82,8.56304348 93.16,8.47826087 93.16,8.13913043 C93.415,7.71521739 92.99,7.71521739 92.82,7.71521739 Z M152.235,7.71521739 L149.09,7.71521739 C148.835,7.71521739 148.41,7.71521739 148.41,8.13913043 C148.41,8.47826087 148.75,8.56304348 148.92,8.56304348 C149.09,8.56304348 149.175,8.56304348 149.345,8.64782609 C149.685,8.8173913 149.855,9.07173913 149.855,10.0891304 L150.025,17.973913 C149.515,17.4652174 148.155,16.1086957 146.71,14.5826087 C143.82,11.7 140.25,8.13913043 140.165,7.96956522 L139.995,7.8 C139.74,7.54565217 139.57,7.37608696 139.315,7.37608696 C138.805,7.37608696 138.805,8.05434783 138.805,8.22391304 L138.72,19.3304348 C138.72,20.8565217 138.635,21.3652174 138.295,21.45 C138.04,21.5347826 137.955,21.5347826 137.87,21.5347826 C137.445,21.5347826 137.36,21.7891304 137.36,21.873913 C137.36,22.2978261 137.785,22.2978261 138.04,22.2978261 L141.27,22.2978261 C141.695,22.2978261 141.95,22.1282609 141.95,21.873913 C141.95,21.7043478 141.865,21.5347826 141.355,21.5347826 C141.355,21.5347826 141.185,21.5347826 140.93,21.45 C140.675,21.2804348 140.505,20.6869565 140.42,19.5847826 L140.25,12.2934783 C141.015,13.1413043 149.345,21.3652174 150.025,22.0434783 C150.28,22.2978261 150.535,22.5521739 150.79,22.5521739 C151.045,22.5521739 151.385,22.2978261 151.385,21.7043478 L151.47,9.91956522 C151.47,8.8173913 151.555,8.64782609 151.895,8.56304348 C152.065,8.56304348 152.065,8.56304348 152.15,8.47826087 C152.32,8.47826087 152.66,8.39347826 152.66,8.05434783 C152.915,7.71521739 152.405,7.71521739 152.235,7.71521739 Z M115.09,21.5347826 L114.665,21.5347826 C114.24,21.45 114.155,21.2804348 114.155,20.8565217 C114.07,20.0934783 114.07,18.6521739 114.07,16.7869565 L114.07,9.49565217 C114.07,8.8173913 114.24,8.7326087 114.58,8.64782609 L114.92,8.64782609 C115.345,8.64782609 115.43,8.39347826 115.43,8.22391304 C115.43,7.96956522 115.26,7.8 114.835,7.8 L110.33,7.8 C110.16,7.8 109.65,7.8 109.65,8.22391304 C109.65,8.39347826 109.735,8.64782609 110.16,8.64782609 C110.33,8.64782609 110.5,8.64782609 110.755,8.7326087 C111.01,8.8173913 111.18,8.98695652 111.18,9.58043478 L111.18,16.8717391 C111.18,18.7369565 111.18,20.1782609 111.095,20.9413043 C111.01,21.45 110.925,21.6195652 110.67,21.7043478 C110.5,21.7891304 110.33,21.7891304 110.16,21.7891304 C109.735,21.7891304 109.65,22.0434783 109.65,22.2130435 C109.65,22.3826087 109.735,22.6369565 110.245,22.6369565 L115.005,22.6369565 C115.6,22.6369565 115.6,22.2978261 115.6,22.2130435 C115.6,21.7891304 115.515,21.5347826 115.09,21.5347826 Z M126.735,7.29130435 C121.295,7.29130435 118.745,11.1913043 118.745,14.8369565 C118.745,18.4826087 121.21,22.3826087 126.565,22.3826087 C131.24,22.3826087 134.555,19.1608696 134.555,14.4978261 C134.555,10.0891304 131.495,7.29130435 126.735,7.29130435 Z M127.33,21.1956522 C124.1,21.1956522 121.805,18.3130435 121.805,14.2434783 C121.805,9.24130435 124.525,8.47826087 126.225,8.47826087 C129.285,8.47826087 131.495,11.276087 131.495,15.176087 C131.41,20.6021739 128.52,21.1956522 127.33,21.1956522 Z M17.085,20.7717391 C18.53,20.4326087 19.975,20.2630435 21.42,20.2630435 C22.355,20.2630435 23.29,20.3478261 24.14,20.4326087 C24.735,21.9586957 25.415,23.4 26.01,24.8413043 C26.775,23.1456522 27.285,21.2804348 27.54,19.4152174 C27.455,19.4152174 27.37,19.3304348 27.2,19.3304348 C25.245,15.0913043 23.12,10.2586957 22.015,7.88478261 C21.76,7.37608696 21.505,7.12173913 21.25,7.12173913 C20.995,7.12173913 20.74,7.37608696 20.485,7.88478261 C19.635,9.75 17.425,14.7521739 15.47,19.3304348 C7.48,21.7043478 1.275,28.4869565 0,36.9652174 L0,37.05 L2.04,35.8630435 C3.485,29.1652174 8.33,23.9086957 14.535,21.6195652 C13.005,25.1804348 11.73,28.0630435 11.73,28.1478261 C11.05,29.7586957 10.455,30.8608696 8.925,31.0304348 L8.415,31.0304348 C8.245,31.0304348 7.99,31.2 7.99,31.5391304 C7.99,31.7086957 8.075,31.9630435 8.67,31.9630435 L14.45,31.9630435 C14.96,31.9630435 15.215,31.7934783 15.215,31.4543478 C15.215,31.2847826 15.13,30.9456522 14.45,30.9456522 C13.43,30.9456522 13.43,30.4369565 13.43,30.0130435 C13.43,29.673913 13.515,28.9108696 13.855,28.0630435 C13.94,28.1478261 15.47,24.5869565 17.085,20.7717391 Z M20.315,13.0565217 C20.485,12.6326087 20.655,12.5478261 20.655,12.5478261 C20.74,12.5478261 20.825,12.6326087 20.995,12.9717391 C21.505,14.073913 22.355,16.1934783 23.375,18.5673913 C22.695,18.4826087 22.1,18.4826087 21.42,18.4826087 C20.23,18.4826087 19.04,18.5673913 17.935,18.8217391 C18.955,16.4478261 19.89,14.2434783 20.315,13.0565217 Z M42.84,36.8804348 C41.65,29.1652174 36.295,22.8065217 29.325,20.0086957 C29.24,20.6021739 29.155,21.1956522 28.985,21.7891304 C34.85,24.1630435 39.44,29.3347826 40.885,35.7782609 L42.84,36.8804348 Z M34.595,31.0304348 C34.595,31.0304348 34.34,31.0304348 33.915,30.9456522 C33.235,30.776087 32.13,30.2673913 30.855,27.3847826 C30.6,26.7913043 29.75,24.926087 28.73,22.6369565 C28.305,24.1630435 27.71,25.6891304 26.945,27.1304348 C27.795,29.1652174 28.39,30.5217391 28.39,30.6065217 L28.39,30.776087 C28.305,30.9456522 28.135,31.0304348 27.88,31.1152174 C27.71,31.1152174 27.115,31.2 27.115,31.623913 C27.115,31.9630435 27.54,32.1326087 28.05,32.1326087 L34.51,32.1326087 C35.02,32.1326087 35.105,31.7934783 35.105,31.623913 C35.19,31.2847826 34.935,31.1152174 34.595,31.0304348 Z" id="Shape" fill="#1D4499" fill-rule="nonzero"></path>
      </g>
    </g>
  </g>
</svg>
