<svg width="13" height="13" xmlns="http://www.w3.org/2000/svg"><g fill="none" fill-rule="evenodd"><path d="M1.479 8.203C1.362 7.775 1 6.723 1 6.257c0-.465.362-1.058.479-1.486h3.165a25.458 25.458 0 00-.067 1.72c0 .462.03 1.151.067 1.584l-3.165.128zm.246.31l2.977-.163c.16.993.6 2.61.93 3.556-2.17-.78-3.284-2.198-3.907-3.393zm10.134-.205l-3.354-.063c.037-.433.11-1.402.11-1.864 0-.462-.073-1.2-.11-1.632l3.1-.065c.117.428.395 1.231.395 1.697 0 .466-.025 1.498-.141 1.927zm-.253.244c-.624 1.195-2.779 3.004-4.083 3.388.327-.639.844-2.558 1.005-3.551l3.078.163zm-6.753-.37c-.03-.418 0-1.229 0-1.708 0-.479.036-1.376.067-1.793l3.32.072c.031.418.108 1.149.108 1.628 0 .48-.077 1.47-.108 1.887l-3.387-.086zm3.306.266c-.2 1.266-.537 2.904-1.463 3.552-.576-.527-1.518-2.372-1.72-3.638l3.183.086zM1.5 4.292c.624-1.195 2.427-2.956 4.045-3.043-.327.64-.733 2.05-.894 3.043h-3.15zm10.164.056l-3.184.085c-.16-.994-.36-2.604-.686-3.243 2.022.146 3.247 1.963 3.87 3.158zm-6.606.015C5.286 2.78 5.973 1.66 6.628 1c.656.659 1.316 1.78 1.545 3.363H5.058z"/><path d="M1.18 7.333h2.544a15.196 15.196 0 010-2.666H1.18a5.005 5.005 0 000 2.666zm.397 1A5.013 5.013 0 004.6 10.802c-.329-.634-.59-1.484-.751-2.469H1.577zm9.243-1a5.005 5.005 0 000-2.666H8.276a15.196 15.196 0 010 2.666h2.544zm-.397 1H8.15c-.161.985-.422 1.835-.75 2.469a5.013 5.013 0 003.023-2.469zm-5.71-1h2.573c.032-.414.047-.858.047-1.333s-.015-.92-.047-1.333H4.714c-.032.414-.047.858-.047 1.333s.015.92.047 1.333zm.116 1C5.031 9.59 5.421 10.477 6 11c.579-.523.97-1.411 1.171-2.667H4.829zM1.577 3.667H3.85c.161-.985.422-1.835.75-2.469a5.013 5.013 0 00-3.023 2.469zm8.846 0A5.013 5.013 0 007.4 1.198c.329.634.59 1.484.751 2.469h2.273zm-5.594 0h2.342C6.969 2.41 6.579 1.523 6 1c-.579.523-.97 1.411-1.171 2.667zM6 12A6 6 0 116 0a6 6 0 010 12z" fill="#17171e"/></g></svg>
