<?xml version="1.0" encoding="UTF-8"?>
<svg xmlns="http://www.w3.org/2000/svg" xmlns:xlink="http://www.w3.org/1999/xlink" id="Layer_1" data-name="Layer 1" viewBox="0 0 88 88">
  <defs>
    <style>.cls-1{fill:url(#linear-gradient);}.cls-2{fill:#fff;}.cls-3{fill:#00abe6;}.cls-4{fill:none;}.cls-5{fill:url(#linear-gradient-2);}.cls-6{fill:url(#linear-gradient-3);}.cls-7{fill:url(#linear-gradient-4);}.cls-8{fill:url(#linear-gradient-5);}</style>
    <linearGradient id="linear-gradient" x1="44" y1="82.09" x2="44" y2="2.35" gradientUnits="userSpaceOnUse">
      <stop offset="0" stop-color="#f47f69"></stop>
      <stop offset="0.46" stop-color="#e374ae"></stop>
      <stop offset="1" stop-color="#006cb7"></stop>
    </linearGradient>
    <linearGradient id="linear-gradient-2" x1="35.31" y1="67.74" x2="21.98" y2="40.75" gradientUnits="userSpaceOnUse">
      <stop offset="0" stop-color="#fff" stop-opacity="0.4"></stop>
      <stop offset="1" stop-color="#fff"></stop>
    </linearGradient>
    <linearGradient id="linear-gradient-3" x1="71.36" y1="59.86" x2="62.45" y2="41.84" gradientUnits="userSpaceOnUse">
      <stop offset="0" stop-color="#fff" stop-opacity="0.6"></stop>
      <stop offset="1" stop-color="#fff" stop-opacity="0.3"></stop>
    </linearGradient>
    <linearGradient id="linear-gradient-4" x1="50.13" y1="60.42" x2="36.79" y2="33.43" xlink:href="#linear-gradient-2"></linearGradient>
    <linearGradient id="linear-gradient-5" x1="54.07" y1="68.4" x2="45.16" y2="50.38" xlink:href="#linear-gradient-3"></linearGradient>
  </defs>
  <rect class="cls-1" width="88" height="88" rx="44"></rect>
  <path class="cls-2" d="M45,23.25H64.26s.45-4.22-3.32-3.77-15.75,2.11-15.75,2.11Z"></path>
  <path class="cls-2" d="M50.81,23.25h13.4a1.08,1.08,0,0,0,1.05-1.33,2.76,2.76,0,0,0-2.85-1.59C59.51,20.68,50.92,22,50.92,22Z"></path>
  <polygon class="cls-2" points="43.73 23.25 42.95 19.81 44.56 19.81 47.14 23.25 43.73 23.25"></polygon>
  <polygon class="cls-2" points="53.07 21.41 51.03 14.48 53.07 14.48 59.04 21.41 53.07 21.41"></polygon>
  <polygon class="cls-2" points="53.07 23.94 51.71 29.11 53.74 29.11 59.04 23.94 53.07 23.94"></polygon>
  <path class="cls-3" d="M63.22,20.51l-1.28,0a1.65,1.65,0,0,1-.09-.51c0-.08.08-.26.42-.24S62.81,19.93,63.22,20.51Z"></path>
  <polygon class="cls-2" points="50.37 15.03 41.63 15.03 41.45 14.43 50.18 14.43 50.37 15.03"></polygon>
  <polygon class="cls-2" points="47.86 16.77 37.15 16.77 36.96 16.17 47.67 16.17 47.86 16.77"></polygon>
  <polygon class="cls-2" points="49.28 28.41 38.57 28.41 38.39 29.01 49.09 29.01 49.28 28.41"></polygon>
  <polygon class="cls-2" points="46.12 26.67 36.07 26.67 35.88 27.27 45.93 27.27 46.12 26.67"></polygon>
  <path class="cls-4" d="M61.71,64.17A9.65,9.65,0,0,1,51.9,73.6H11.45A43.85,43.85,0,0,0,44,88h0A44,44,0,0,0,83.71,63H61.63A9.55,9.55,0,0,1,61.71,64.17Z"></path>
  <path class="cls-4" d="M5.48,47.61a9.9,9.9,0,0,1-.22-2,10.16,10.16,0,0,1,10.35-10c.31,0,.62,0,.93,0a14.36,14.36,0,0,1,12.11-6.51c7.87,0,14.25,6.14,14.25,13.7a14,14,0,0,1-.25,2.52,14.47,14.47,0,0,1,2.2,1.85,7,7,0,0,1,8.21-1.6,6.84,6.84,0,0,1-.14-1.37,6.77,6.77,0,0,1,6.91-6.64c.21,0,.41,0,.62,0a9.57,9.57,0,0,1,8.08-4.34A9.33,9.33,0,0,1,78,42.44a9.2,9.2,0,0,1-.16,1.68,9.15,9.15,0,0,1,3.93,6.26h2.25a6.71,6.71,0,0,1,3.33.89A43.58,43.58,0,0,0,88,44h0A44,44,0,0,0,44,0h0A44,44,0,0,0,0,44H0c0,.89,0,1.76.09,2.64a8.31,8.31,0,0,1,.87,0A10.65,10.65,0,0,1,5.48,47.61Z"></path>
  <path class="cls-5" d="M61.71,64.17a9.55,9.55,0,0,0-.08-1.2H44.75a6.45,6.45,0,0,1-6.55-6.3,6.36,6.36,0,0,1,5-6.11,6.48,6.48,0,0,1,1.62-3.34,14.47,14.47,0,0,0-2.2-1.85,14,14,0,0,0,.25-2.52c0-7.56-6.38-13.7-14.25-13.7a14.36,14.36,0,0,0-12.11,6.51c-.31,0-.62,0-.93,0a10.16,10.16,0,0,0-10.35,10,9.9,9.9,0,0,0,.22,2A10.65,10.65,0,0,0,1,46.6a8.31,8.31,0,0,0-.87,0,43.79,43.79,0,0,0,11.36,27H51.9A9.65,9.65,0,0,0,61.71,64.17Z"></path>
  <path class="cls-6" d="M84.06,50.38H81.81a9.15,9.15,0,0,0-3.93-6.26A9.2,9.2,0,0,0,78,42.44a9.33,9.33,0,0,0-9.51-9.14,9.57,9.57,0,0,0-8.08,4.34c-.21,0-.41,0-.62,0a6.77,6.77,0,0,0-6.91,6.64,6.84,6.84,0,0,0,.14,1.37,7,7,0,0,0-8.21,1.6,13.48,13.48,0,0,1,3.69,7.52H51.9A9.72,9.72,0,0,1,61.63,63H83.71a43.38,43.38,0,0,0,3.68-11.7A6.71,6.71,0,0,0,84.06,50.38Z"></path>
  <path class="cls-7" d="M38.2,56.67A6.45,6.45,0,0,0,44.75,63H61.63a9.72,9.72,0,0,0-9.73-8.23H48.54a13.48,13.48,0,0,0-3.69-7.52,6.48,6.48,0,0,0-1.62,3.34A6.36,6.36,0,0,0,38.2,56.67Z"></path>
  <path class="cls-8" d="M38.2,56.67A6.45,6.45,0,0,0,44.75,63H61.63a9.72,9.72,0,0,0-9.73-8.23H48.54a13.48,13.48,0,0,0-3.69-7.52,6.48,6.48,0,0,0-1.62,3.34A6.36,6.36,0,0,0,38.2,56.67Z"></path>
</svg>
