<?xml version="1.0" encoding="UTF-8"?>
<svg xmlns="http://www.w3.org/2000/svg" xmlns:xlink="http://www.w3.org/1999/xlink" width="92px" height="36px" viewBox="0 0 92 36">
  <!-- Generator: Sketch 52.5 (67469) - http://www.bohemiancoding.com/sketch -->
  <title>dupont</title>
  <desc>Created with Sketch.</desc>
  <g id="Visual-Design" stroke="none" stroke-width="1" fill="none" fill-rule="evenodd">
    <g id="Solutions-by-Industry" transform="translate(-843.000000, -804.000000)">
      <g id="Utilities" transform="translate(0.000000, 721.000000)">
        <g id="dupont" transform="translate(843.000000, 83.000000)">
          <g id="Group-5" transform="translate(0.000000, 0.079558)">
            <path d="M90.4181223,18.0269006 C90.4181223,8.99109945 70.5648035,1.66679006 46.0753275,1.66679006 C21.5858515,1.66679006 1.73253275,8.99109945 1.73253275,18.0269006 C1.73253275,27.0626022 21.5858515,34.3880055 46.0753275,34.3880055 C70.5648035,34.3880055 90.4181223,27.0626022 90.4181223,18.0269006 M46,0.044801105 C71.3913974,0.044801105 91.9748908,8.06613812 91.9748908,17.9602707 C91.9748908,27.8542044 71.3913974,35.8756409 46,35.8756409 C20.6086026,35.8756409 0.0251091703,27.8542044 0.0251091703,17.9602707 C0.0251091703,8.06613812 20.6086026,0.044801105 46,0.044801105" id="Fill-1" fill="#EE1C25"></path>
            <path d="M46.0753275,1.66676022 C70.5648035,1.66676022 90.4181223,8.99106961 90.4181223,18.0268707 C90.4181223,27.0626718 70.5648035,34.3879757 46.0753275,34.3879757 C21.5858515,34.3879757 1.73253275,27.0626718 1.73253275,18.0268707 C1.73253275,8.99106961 21.5858515,1.66676022 46.0753275,1.66676022" id="Fill-3" fill="#FFFFFF"></path>
          </g>
          <path d="M74.7165546,7.48407182 C74.7123362,8.43707735 74.7146463,9.1270442 74.7146463,10.2892873 C76.1561135,10.6124917 78.4661572,11.5075193 78.4661572,11.5075193 L78.4661572,27.4066906 L81.1779476,26.2464365 L81.1779476,12.7547901 C82.4459607,13.1732652 83.8565939,14.3044807 83.8565939,14.3044807 C83.8565939,14.3044807 83.8646288,12.3403923 83.8562926,11.3956409 C81.4290393,9.8169116 77.6752183,8.17602762 74.7165546,7.48407182" id="Fill-6" fill="#EE1C25"></path>
          <path d="M62.4297336,4.93136193 C63.9781659,4.92334807 64.5389039,5.13049724 64.5389039,5.13049724 L69.5524017,19.898453 C69.5524017,19.898453 69.5189563,8.99234254 69.53131,6.17549171 C71.7871179,6.51450829 72.1720917,6.82110497 72.1720917,6.82110497 L72.1720917,29.3293591 C72.1720917,29.3293591 71.9712183,29.4702762 69.9960306,29.8598122 C68.8576812,26.3956575 65.141524,15.0420331 65.141524,15.0420331 L65.141524,30.8791492 C65.141524,30.8791492 64.6561135,31.0117127 62.4297336,31.1774917 C62.4297336,26.3625414 62.4435939,9.93709392 62.4297336,4.93136193" id="Fill-8" fill="#EE1C25"></path>
          <path d="M56.6673799,27.4445204 C56.6734061,23.7351282 56.7015284,8.92739337 56.7015284,8.64894033 C56.7015284,7.21092928 56.2224454,7.08960331 55.7674672,6.92054254 C55.0141921,6.77932707 54.6325328,6.84894033 53.4453712,6.77932707 C52.6931004,6.86186851 52.4138865,7.4983326 52.4168996,8.30087403 C52.4058515,12.8684983 52.4279476,22.920653 52.4168996,27.4325867 C52.4158952,28.9362331 53.0175109,29.283305 53.609083,29.283305 C54.0921834,29.283305 55.0664192,29.281316 55.4661572,29.1967856 C56.4082533,29.0973381 56.7015284,28.6378906 56.6673799,27.4445204 M59.3831878,7.49236575 C59.3711354,13.0484983 59.3711354,23.7023105 59.3580786,28.3514818 C59.2827511,30.564189 57.3242358,31.8321448 56.621179,31.9067304 C55.7182533,32.0131392 53.4795197,32.1185536 52.3877729,32.1185536 C50.9816594,32.180211 49.6830131,30.700432 49.6930568,28.8119238 C49.7181659,23.1553492 49.6649345,12.1584431 49.6900437,6.43126077 C49.6789956,5.73512818 50.539738,4.01369171 52.240131,3.90927182 C54.9268122,3.99778011 55.5906987,4.03755912 57.2388646,4.29115028 C58.2683406,4.50297348 59.3831878,5.68938232 59.3831878,7.49236575" id="Fill-10" fill="#EE1C25"></path>
          <path d="M43.7231105,21.0838575 L43.7231105,6.50584641 C43.7231105,6.50584641 41.6942895,6.2820895 39.6644642,6.59733812 C39.6674773,10.3266199 39.6644642,21.0838575 39.6644642,21.0838575 L43.7231105,21.0838575 Z M46.46001,6.54761436 C46.46001,10.6080564 46.4569969,17.1964541 46.46001,21.0092718 C46.46001,22.2772276 45.4224991,23.7023105 43.8074773,23.7023105 C42.6273463,23.7023105 39.64739,23.6854044 39.64739,23.6854044 L39.6534162,32.0956807 C39.6534162,32.0956807 38.2473026,32.1861779 36.9828048,32.0061779 C36.9737655,26.9403215 36.9687437,4.06142652 36.9687437,4.06142652 C36.9687437,4.06142652 41.7143769,3.82971381 43.5724555,3.77999006 C45.3642459,3.7302663 46.46001,5.30452044 46.46001,6.54761436 Z" id="Fill-12" fill="#EE1C25"></path>
          <path d="M20.7150655,6.52276243 L23.3934105,5.89296133 C23.3934105,5.89296133 23.3948166,20.2630276 23.3780437,25.5503536 C23.4603013,27.1912376 24.0796943,27.4398564 25.4021441,27.7548066 C27.0760218,28.1194807 27.7790786,27.6056354 27.9130611,25.6000773 L27.9130611,5.09738122 L30.5746332,4.55041989 L30.5746332,26.1470387 C30.5746332,28.898453 28.7667729,30.8707956 26.7266026,30.7206298 C25.6720175,30.6045746 23.9071441,30.3971271 22.7070262,29.975768 C21.3679039,29.4122983 20.7076332,28.135989 20.7150655,26.5448287 C20.6982926,21.6719006 20.7150655,6.52276243 20.7150655,6.52276243" id="Fill-14" fill="#EE1C25"></path>
          <path d="M15.3065402,12.8874033 C15.3085489,11.8432044 15.3487236,11.0476243 14.5050555,11.2634254 C13.9345751,11.4225414 12.9312127,11.9257459 11.8454921,12.4060773 C11.8515183,14.5700552 11.8454921,23.7440884 11.8454921,23.7440884 C11.8454921,23.7440884 13.5639638,24.5416575 14.1364528,24.7713812 C14.7591603,25.0418785 15.3045314,25.2477348 15.3035271,23.2796685 C15.3065402,20.6114917 15.2774135,15.4849724 15.3065402,12.8874033 M17.9861908,11.3956906 C17.9861908,11.3956906 17.9942258,21.5224309 17.9861908,25.1194475 C17.9902083,27.7717127 16.1954048,28.1356906 14.6054921,27.7717127 C13.1431341,27.4624309 9.14776288,25.3511602 9.14776288,25.3511602 C9.14776288,25.3511602 9.16483712,13.7824309 9.14776288,10.8656354 C10.9556231,9.70508287 13.6674135,8.47889503 15.1237454,8.26309392 C17.9861908,7.76585635 17.9861908,11.3956906 17.9861908,11.3956906" id="Fill-16" fill="#EE1C25"></path>
        </g>
      </g>
    </g>
  </g>
</svg>
