<?xml version="1.0" encoding="UTF-8"?>
<svg xmlns="http://www.w3.org/2000/svg" xmlns:xlink="http://www.w3.org/1999/xlink" width="144px" height="47px" viewBox="0 0 144 47">
  <!-- Generator: Sketch 52.3 (67297) - http://www.bohemiancoding.com/sketch -->
  <title>google</title>
  <desc>Created with Sketch.</desc>
  <defs>
    <polygon id="path-1" points="0 0.203120513 35.6706947 0.203120513 35.6706947 36.8483 0 36.8483"></polygon>
    <polygon id="path-3" points="0.665376 0.00132222222 23.530656 0.00132222222 23.530656 34 0.665376 34"></polygon>
    <polygon id="path-5" points="0 47 144 47 144 0 0 0"></polygon>
  </defs>
  <g id="Visual-Design" stroke="none" stroke-width="1" fill="none" fill-rule="evenodd">
    <g id="home" transform="translate(-1202.000000, -1967.000000)">
      <g id="Group-13" transform="translate(115.000000, 1853.000000)">
        <g id="google" transform="translate(1087.000000, 114.000000)">
          <g id="Group-3">
            <mask id="mask-2" fill="white">
              <use xlink:href="#path-1"></use>
            </mask>
            <g id="Clip-2"></g>
            <path d="M35.3665895,16.8834795 L18.5811158,16.8834795 L18.5811158,21.8718385 L30.4857474,21.8718385 C29.8974316,28.8657872 24.0862737,31.8485564 18.6010105,31.8485564 C11.5838526,31.8485564 5.46006316,26.3194282 5.46006316,18.5693513 C5.46006316,11.0194538 11.2977474,5.20476154 18.6171158,5.20476154 C24.2634316,5.20476154 27.5915368,8.80988974 27.5915368,8.80988974 L31.0788,5.19337692 C31.0788,5.19337692 26.6024842,0.203120513 18.4380632,0.203120513 C8.04258947,0.203120513 -0.000568421053,8.98919744 -0.000568421053,18.4801718 C-0.000568421053,27.7804538 7.56511579,36.8483 18.7033263,36.8483 C28.4991158,36.8483 35.6706947,30.1275821 35.6706947,20.1907103 C35.6706947,18.0940436 35.3665895,16.8825308 35.3665895,16.8825308 L35.3665895,16.8834795 Z" id="Fill-1" fill="#587EBF" mask="url(#mask-2)"></path>
          </g>
          <path d="M49.0808405,17.516815 C52.521373,17.516815 55.7819392,20.1948528 55.7819392,24.5088002 C55.7819392,28.7319667 52.5348464,31.485964 49.0644799,31.485964 C45.2515037,31.485964 42.2440452,28.5457731 42.2440452,24.4754521 C42.2440452,20.4922067 45.2139706,17.516815 49.0808405,17.516815 M49.0115486,13 C42.0140348,13 37,18.2652946 37,24.4059769 C37,30.6374401 41.8639025,36 49.0933515,36 C55.6375812,36 61,31.1849047 61,24.5393693 C61,16.9221072 54.7627717,13 49.0115486,13" id="Fill-4" fill="#DA3436"></path>
          <path d="M75.0808405,17.516815 C78.521373,17.516815 81.7819392,20.1948528 81.7819392,24.5088002 C81.7819392,28.7319667 78.5348464,31.485964 75.0644799,31.485964 C71.2515037,31.485964 68.2440452,28.5457731 68.2440452,24.4754521 C68.2440452,20.4922067 71.2139706,17.516815 75.0808405,17.516815 M75.0115486,13 C68.0140348,13 63,18.2652946 63,24.4059769 C63,30.6374401 67.8639025,36 75.0933515,36 C81.6375812,36 87,31.1849047 87,24.5393693 C87,16.9221072 80.7627717,13 75.0115486,13" id="Fill-6" fill="#F2C117"></path>
          <g id="Group-10" transform="translate(88.000000, 13.000000)">
            <mask id="mask-4" fill="white">
              <use xlink:href="#path-3"></use>
            </mask>
            <g id="Clip-9"></g>
            <path d="M12.571296,4.59793333 C15.711456,4.59793333 18.937056,7.23576667 18.937056,11.7417111 C18.937056,16.3222667 15.719136,18.8458222 12.501216,18.8458222 C9.086496,18.8458222 5.908896,16.1173222 5.908896,11.7851556 C5.908896,7.28393333 9.209376,4.59793333 12.571296,4.59793333 Z M12.107616,0.00132222222 C5.701536,0.00132222222 0.665376,5.5216 0.665376,11.7171556 C0.665376,18.7749889 6.503136,23.4547111 11.997216,23.4547111 C15.393696,23.4547111 17.199456,22.1287111 18.532896,20.6053222 L18.532896,22.9173222 C18.532896,26.9623778 16.036896,29.3848778 12.268896,29.3848778 C8.627616,29.3848778 6.801696,26.7224889 6.167136,25.2113778 L1.586976,27.0946 C3.211296,30.4747667 6.482976,34.0003778 12.306336,34.0003778 C18.675936,34.0003778 23.530656,30.0535444 23.530656,21.7754889 L23.530656,0.706822222 L18.532896,0.706822222 L18.532896,2.69298889 C16.996896,1.06382222 14.895456,0.00226666667 12.107616,0.00226666667 L12.107616,0.00132222222 Z" id="Fill-8" fill="#587EBF" mask="url(#mask-4)"></path>
          </g>
          <path d="M133.399069,17.4184503 C135.590566,17.4184503 137.167516,18.5343981 137.838106,19.8724252 L127.0961,24.1715079 C126.633257,20.8430962 129.9263,17.4184503 133.399069,17.4184503 Z M133.189389,13 C127.106729,13 122,17.6340521 122,24.4731654 C122,31.7083199 127.692287,36 133.773981,36 C138.848823,36 141.964072,33.3406019 143.823173,30.9578774 L139.676915,28.3160605 C138.600492,29.9150306 136.8013,31.4779128 133.799104,31.4779128 C130.426827,31.4779128 128.875966,29.7096073 127.915495,27.9968217 L144,21.6055681 L143.165144,19.731775 C141.611384,16.0646926 137.986911,13.0009253 133.190355,13.0009253 L133.189389,13 Z" id="Fill-11" fill="#DA3436"></path>
          <mask id="mask-6" fill="white">
            <use xlink:href="#path-5"></use>
          </mask>
          <g id="Clip-14"></g>
          <polygon id="Fill-13" fill="#44B653" mask="url(#mask-6)" points="115 35 120 35 120 1 115 1"></polygon>
        </g>
      </g>
    </g>
  </g>
</svg>
