<?xml version="1.0" encoding="UTF-8"?>
<svg xmlns="http://www.w3.org/2000/svg" xmlns:xlink="http://www.w3.org/1999/xlink" id="Layer_1" data-name="Layer 1" viewBox="0 0 88 88">
  <defs>
    <style>.cls-1{fill:url(#radial-gradient);}.cls-2{fill:url(#radial-gradient-2);}.cls-3{fill:#fff;}</style>
    <radialGradient id="radial-gradient" cx="44" cy="44.03" r="44.02" gradientUnits="userSpaceOnUse">
      <stop offset="0.44" stop-color="#ffd03d"></stop>
      <stop offset="0.94" stop-color="#fbb140"></stop>
    </radialGradient>
    <radialGradient id="radial-gradient-2" cx="41.99" cy="51.42" r="37.2" gradientUnits="userSpaceOnUse">
      <stop offset="0" stop-color="#ffc40c"></stop>
      <stop offset="0.8" stop-color="#f15f43"></stop>
    </radialGradient>
  </defs>
  <rect class="cls-1" width="88" height="88.07" rx="44"></rect>
  <path class="cls-2" d="M66.69,74.85A1.84,1.84,0,0,0,68.53,73V59h3.4a1.84,1.84,0,0,0,1.8-2.23L68.67,33.43h0A29.47,29.47,0,1,0,17.27,58.12V78.94A43.77,43.77,0,0,0,44,88h0a45,45,0,0,0,7.58-.66V74.85Z"></path>
  <path class="cls-3" d="M56.8,41.38a16.12,16.12,0,0,0-.11-4l3-1.35a20.52,20.52,0,0,0-1.36-4.31,20.09,20.09,0,0,0-2.29-3.89l-3,1.35a16.11,16.11,0,0,0-2.9-2.75l1.19-3.09A19.91,19.91,0,0,0,43,20.13l-1.19,3.09a16.12,16.12,0,0,0-4,.11l-1.34-3A19.8,19.8,0,0,0,28.23,24l1.33,3a16.47,16.47,0,0,0-2.75,2.9l-3.08-1.19a19.86,19.86,0,0,0-2.1,4,20.49,20.49,0,0,0-1.12,4.37l3.09,1.19a16.62,16.62,0,0,0,.1,4l-3,1.35A19.25,19.25,0,0,0,22,47.91a19.59,19.59,0,0,0,2.29,3.89l3-1.35a16.39,16.39,0,0,0,2.89,2.75l-1.18,3.1a20.3,20.3,0,0,0,4,2.08,19.68,19.68,0,0,0,4.37,1.14l1.19-3.1a16.62,16.62,0,0,0,4-.1l1.34,3a19.91,19.91,0,0,0,8.2-3.67l-1.34-3a16.11,16.11,0,0,0,2.75-2.9L56.67,51a19.91,19.91,0,0,0,3.22-8.38ZM48.58,43a9,9,0,1,1-5.17-11.6A9,9,0,0,1,48.58,43Z"></path>
</svg>
