<?xml version="1.0" encoding="UTF-8"?>
<svg xmlns="http://www.w3.org/2000/svg" xmlns:xlink="http://www.w3.org/1999/xlink" width="167px" height="36px" viewBox="0 0 167 36">
  <!-- Generator: Sketch 52.3 (67297) - http://www.bohemiancoding.com/sketch -->
  <title>microsoft</title>
  <desc>Created with Sketch.</desc>
  <defs>
    <polygon id="path-1" points="0.0001 0.498 16.8891 0.498 16.8891 17.3867 0.0001 17.3867"></polygon>
    <polygon id="path-3" points="0 0.498 166.252 0.498 166.252 35.9997 0 35.9997"></polygon>
    <polygon id="path-5" points="0.61315 0.498 17.50265 0.498 17.50265 17.3867 0.61315 17.3867"></polygon>
    <polygon id="path-7" points="0.4569 0.0259304484 19.252 0.0259304484 19.252 23.2566906 0.4569 23.2566906"></polygon>
    <polygon id="path-9" points="0.621502955 0.571751531 4.252 0.571751531 4.252 10.2627185 0.621502955 10.2627185"></polygon>
  </defs>
  <g id="Visual-Design" stroke="none" stroke-width="1" fill="none" fill-rule="evenodd">
    <g id="home" transform="translate(-788.000000, -1973.000000)">
      <g id="Group-13" transform="translate(115.000000, 1853.000000)">
        <g id="microsoft" transform="translate(673.000000, 119.000000)">
          <g id="Group-3" transform="translate(0.000000, 0.502300)">
            <mask id="mask-2" fill="white">
              <use xlink:href="#path-1"></use>
            </mask>
            <g id="Clip-2"></g>
            <path d="M0.0001,0.4977 L16.8891,0.4977 C16.8881,6.1267 16.8891,11.7567 16.8881,17.3867 L0.0001,17.3867 L0.0001,0.4977 Z" id="Fill-1" fill="#EF5125" mask="url(#mask-2)"></path>
          </g>
          <g id="Group-6" transform="translate(0.000000, 0.502300)">
            <mask id="mask-4" fill="white">
              <use xlink:href="#path-3"></use>
            </mask>
            <g id="Clip-5"></g>
            <path d="M16.8888,0.4977 L18.6138,0.4977 C18.6138,6.1267 18.6128,11.7567 18.6148,17.3867 C24.2428,17.3867 29.8728,17.3857 35.5018,17.3867 C35.5038,11.7567 35.5028,6.1267 35.5028,0.4977 L166.2528,0.4977 L166.2528,13.6327 C165.0478,13.6367 163.8428,13.6227 162.6388,13.6407 C162.6108,12.1157 162.6358,10.5917 162.6248,9.0677 C161.4198,9.4307 160.2218,9.8177 159.0108,10.1627 C158.9818,11.3187 159.0088,12.4767 158.9958,13.6327 C157.2148,13.6317 155.4328,13.6347 153.6518,13.6307 C153.6748,12.7197 153.5898,11.8017 153.7208,10.8957 C153.8288,10.1817 154.2428,9.4677 154.9388,9.1917 C155.8158,8.8317 156.7968,9.0707 157.6308,9.4377 C157.6258,8.3937 157.6388,7.3507 157.6228,6.3077 C155.8688,5.8247 153.8568,5.9187 152.2998,6.9327 C151.2958,7.5757 150.5678,8.6037 150.2398,9.7447 C149.8518,11.0077 150.0508,12.3407 149.9888,13.6377 C149.1428,13.6317 148.2998,13.6227 147.4568,13.6427 C147.4658,14.6187 147.4618,15.5947 147.4588,16.5687 C148.3058,16.5857 149.1538,16.5657 150.0008,16.5817 C149.9928,20.6877 149.9988,24.7937 149.9988,28.8997 L153.6508,28.8997 C153.6508,24.7917 153.6498,20.6847 153.6518,16.5787 C155.4328,16.5757 157.2158,16.5767 158.9978,16.5777 C159.0028,19.1947 158.9928,21.8117 159.0018,24.4297 C159.0178,25.6487 159.2258,26.9517 160.0338,27.9147 C160.7328,28.7667 161.8418,29.1557 162.9128,29.2347 C164.0418,29.3157 165.2088,29.1777 166.2528,28.7237 L166.2528,35.9997 L35.5028,35.9997 L35.5028,19.1107 C29.8728,19.1107 24.2428,19.1097 18.6148,19.1117 C18.6128,24.7407 18.6148,30.3707 18.6138,35.9997 L16.8888,35.9997 C16.8888,30.3707 16.8898,24.7417 16.8888,19.1117 C11.2598,19.1087 5.6298,19.1117 -0.0002,19.1097 L-0.0002,17.3867 L16.8878,17.3867 C16.8888,11.7567 16.8878,6.1267 16.8888,0.4977" id="Fill-4" fill="#FEFEFE" mask="url(#mask-4)"></path>
          </g>
          <g id="Group-9" transform="translate(18.000000, 0.502300)">
            <mask id="mask-6" fill="white">
              <use xlink:href="#path-5"></use>
            </mask>
            <g id="Clip-8"></g>
            <path d="M0.6134,0.4977 L17.5024,0.4977 C17.5024,6.1267 17.5034,11.7567 17.5014,17.3867 C11.8724,17.3857 6.2434,17.3867 0.6144,17.3867 C0.6124,11.7567 0.6134,6.1267 0.6134,0.4977" id="Fill-7" fill="#80BA41" mask="url(#mask-6)"></path>
          </g>
          <g id="Group-12" transform="translate(147.000000, 6.502300)">
            <mask id="mask-8" fill="white">
              <use xlink:href="#path-7"></use>
            </mask>
            <g id="Clip-11"></g>
            <path d="M5.2999,0.9328 C6.8569,-0.0812 8.8689,-0.1752 10.6229,0.3078 C10.6389,1.3508 10.6259,2.3938 10.6309,3.4378 C9.7969,3.0708 8.8159,2.8318 7.9389,3.1918 C7.2419,3.4678 6.8289,4.1818 6.7199,4.8958 C6.5899,5.8018 6.6749,6.7198 6.6519,7.6308 C8.4329,7.6348 10.2149,7.6318 11.9959,7.6328 C12.0089,6.4758 11.9819,5.3188 12.0109,4.1618 C13.2219,3.8178 14.4199,3.4308 15.6249,3.0678 C15.6349,4.5918 15.6109,6.1158 15.6379,7.6408 C16.8419,7.6228 18.0479,7.6368 19.2529,7.6328 L19.2529,10.5988 C18.0439,10.5488 16.8329,10.5848 15.6239,10.5808 C15.6289,12.2868 15.6249,13.9918 15.6259,15.6978 C15.6459,16.6418 15.5749,17.5918 15.6859,18.5328 C15.7529,19.0878 15.9549,19.7028 16.4749,19.9898 C17.3459,20.4768 18.4519,20.2648 19.2529,19.7288 L19.2529,22.7238 C18.2089,23.1778 17.0419,23.3158 15.9129,23.2348 C14.8419,23.1558 13.7329,22.7668 13.0329,21.9148 C12.2259,20.9518 12.0179,19.6488 12.0019,18.4298 C11.9929,15.8118 12.0029,13.1948 11.9979,10.5778 C10.2159,10.5768 8.4329,10.5758 6.6519,10.5788 C6.6499,14.6848 6.6509,18.7918 6.6509,22.8998 L2.9989,22.8998 C2.9989,18.7938 2.9929,14.6878 3.0009,10.5818 C2.1539,10.5658 1.3049,10.5858 0.4589,10.5688 C0.4619,9.5948 0.4659,8.6188 0.4569,7.6428 C1.2999,7.6228 2.1429,7.6318 2.9879,7.6378 C3.0499,6.3408 2.8519,5.0078 3.2399,3.7448 C3.5679,2.6038 4.2959,1.5758 5.2999,0.9328" id="Fill-10" fill="#787777" mask="url(#mask-8)"></path>
          </g>
          <path d="M74.0953,7.648 C74.8313,7.537 75.6293,7.788 76.1173,8.364 C76.6893,8.995 76.7943,9.999 76.3703,10.737 C75.9023,11.568 74.8533,11.955 73.9393,11.755 C72.9913,11.585 72.2003,10.703 72.2433,9.72 C72.2163,8.686 73.0813,7.764 74.0953,7.648" id="Fill-13" fill="#787777"></path>
          <path d="M46.1021,8.1006 L51.4141,8.1006 C53.0681,12.2986 54.7331,16.4936 56.3891,20.6916 C56.8121,21.7416 57.2071,22.8036 57.6511,23.8456 C59.7781,18.5996 61.9351,13.3656 64.0461,8.1126 C65.7491,8.0846 67.4531,8.1066 69.1581,8.1026 C69.1531,15.2016 69.1551,22.3016 69.1561,29.4006 C67.9271,29.3976 66.6991,29.4116 65.4701,29.3936 C65.4831,24.1546 65.4691,18.9156 65.4771,13.6756 C65.4781,13.4396 65.4701,13.2046 65.4541,12.9696 C65.3821,13.0786 65.3181,13.1926 65.2621,13.3096 C63.1511,18.6726 61.0001,24.0206 58.9011,29.3886 C58.0271,29.4196 57.1511,29.3906 56.2761,29.4046 C54.0991,24.0416 51.9481,18.6666 49.7811,13.2996 C49.7251,13.1886 49.6641,13.0796 49.5981,12.9756 C49.5531,15.2706 49.5911,17.5686 49.5791,19.8636 C49.5801,23.0426 49.5761,26.2216 49.5801,29.4006 C48.4201,29.4036 47.2611,29.4006 46.1021,29.4016 C46.1011,22.3016 46.1001,15.2006 46.1021,8.1006" id="Fill-15" fill="#787777"></path>
          <path d="M84.1476,14.1206 C85.9106,13.6186 87.8116,13.6386 89.5736,14.1366 C89.9366,14.2386 90.2886,14.3796 90.6156,14.5706 C90.5946,15.7346 90.6156,16.8986 90.6046,18.0636 C89.4266,17.1636 87.9326,16.5936 86.4356,16.7826 C85.2466,16.8896 84.1126,17.5066 83.4006,18.4676 C82.4876,19.6576 82.2756,21.2396 82.4336,22.6956 C82.5506,23.8356 83.0226,24.9746 83.9096,25.7306 C84.8306,26.5496 86.1216,26.8396 87.3266,26.7476 C88.5176,26.6116 89.6416,26.1066 90.6046,25.4036 C90.6146,26.5056 90.5986,27.6086 90.6116,28.7106 C89.1196,29.5996 87.3286,29.8286 85.6196,29.7446 C83.8706,29.6526 82.1266,28.9896 80.8606,27.7606 C79.4856,26.4346 78.7396,24.5436 78.6506,22.6506 C78.5616,20.6816 78.9626,18.6276 80.0956,16.9826 C81.0446,15.5796 82.5296,14.5876 84.1476,14.1206" id="Fill-17" fill="#787777"></path>
          <path d="M108.8946,13.858 C110.6476,13.635 112.4966,13.734 114.1236,14.475 C115.5356,15.112 116.6796,16.289 117.3136,17.699 C117.9906,19.2 118.1546,20.886 118.0406,22.514 C117.9276,24.104 117.4286,25.696 116.4346,26.959 C115.4166,28.3 113.8836,29.209 112.2416,29.547 C110.8376,29.839 109.3686,29.838 107.9646,29.543 C106.2846,29.184 104.7296,28.209 103.7456,26.791 C102.5886,25.148 102.2596,23.058 102.4066,21.089 C102.5066,19.419 103.0256,17.735 104.0926,16.424 C105.2616,14.957 107.0536,14.09 108.8946,13.858" id="Fill-19" fill="#787777"></path>
          <path d="M124.0475,13.8882 C125.7355,13.5912 127.5045,13.8092 129.1025,14.4142 C129.1045,15.5342 129.1025,16.6532 129.1035,17.7722 C127.9865,17.0042 126.6225,16.5912 125.2675,16.6392 C124.5855,16.6652 123.8345,16.9542 123.5235,17.6042 C123.2755,18.2462 123.4465,19.0882 124.0525,19.4722 C125.0885,20.1652 126.3235,20.4592 127.3965,21.0802 C128.2415,21.5552 129.0615,22.1752 129.4895,23.0702 C130.2935,24.7462 129.9525,26.9602 128.5385,28.2102 C127.1885,29.4712 125.2445,29.8212 123.4555,29.7542 C122.1865,29.6712 120.9095,29.4212 119.7425,28.9022 C119.7475,27.7242 119.7355,26.5472 119.7485,25.3702 C120.7305,26.0842 121.8635,26.5942 123.0625,26.8012 C123.8975,26.9372 124.8045,26.9432 125.5835,26.5702 C126.3275,26.2002 126.4615,25.1412 126.0195,24.4942 C125.6055,23.9952 124.9975,23.7202 124.4245,23.4512 C123.3485,22.9672 122.2175,22.5622 121.2725,21.8372 C120.6075,21.3182 120.1045,20.5882 119.9075,19.7642 C119.6155,18.5502 119.7065,17.1812 120.4125,16.1212 C121.2195,14.8842 122.6205,14.1432 124.0475,13.8882" id="Fill-21" fill="#787777"></path>
          <path d="M138.0079,13.8526 C139.8309,13.6266 141.7659,13.7496 143.4289,14.5896 C144.8799,15.3146 146.0049,16.6246 146.5669,18.1406 C147.0059,19.2996 147.1599,20.5516 147.1349,21.7866 C147.1379,23.6296 146.6399,25.5226 145.4829,26.9856 C144.3989,28.4016 142.7419,29.3216 140.9919,29.6106 C139.2809,29.8876 137.4729,29.8156 135.8469,29.1756 C134.1999,28.5276 132.8309,27.2046 132.1369,25.5756 C131.4139,23.9156 131.3379,22.0466 131.5629,20.2726 C131.7989,18.4986 132.6019,16.7646 133.9719,15.5846 C135.0929,14.5996 136.5379,14.0416 138.0079,13.8526" id="Fill-23" fill="#787777"></path>
          <path d="M98.7828,14.3692 C99.7908,13.7642 101.0728,13.7132 102.1728,14.0832 C102.1678,15.3012 102.1728,16.5192 102.1698,17.7382 C101.4498,17.2712 100.5508,17.0712 99.7008,17.1582 C98.6638,17.2752 97.8428,18.0712 97.4168,18.9842 C96.9538,19.9512 96.8668,21.0442 96.8958,22.1012 C96.8958,24.5352 96.8968,26.9682 96.8958,29.4022 L93.2948,29.4022 C93.2918,24.3162 93.2998,19.2292 93.2918,14.1432 C94.4938,14.1272 95.6958,14.1342 96.8978,14.1402 C96.8928,15.0132 96.8978,15.8872 96.8948,16.7612 C97.2858,15.8102 97.8668,14.8872 98.7828,14.3692" id="Fill-25" fill="#787777"></path>
          <path d="M72.5748,14.1397 C73.7858,14.1347 74.9978,14.1227 76.2098,14.1457 C76.1948,19.2307 76.2078,24.3167 76.2028,29.4017 L72.5768,29.4017 C72.5738,24.3147 72.5778,19.2277 72.5748,14.1397" id="Fill-27" fill="#787777"></path>
          <path d="M109.9845,16.7569 C111.0815,16.6849 112.2505,16.9949 113.0395,17.7939 C113.8835,18.6229 114.2105,19.8269 114.3005,20.9759 C114.3655,22.2329 114.3135,23.5419 113.7865,24.7069 C113.4375,25.4909 112.7975,26.1549 111.9915,26.4689 C111.0485,26.8319 109.9885,26.8529 109.0145,26.5999 C108.0235,26.3399 107.1825,25.6239 106.7255,24.7119 C106.1365,23.5369 106.0485,22.1789 106.1705,20.8899 C106.2805,19.7189 106.6885,18.5139 107.5815,17.7049 C108.2285,17.1009 109.1105,16.8059 109.9845,16.7569" id="Fill-29" fill="#FEFEFE"></path>
          <path d="M138.9937,16.7598 C140.0257,16.6878 141.1267,16.9268 141.9197,17.6228 C142.6517,18.2298 143.0557,19.1388 143.2417,20.0538 C143.4507,21.1268 143.4487,22.2378 143.2717,23.3158 C143.1327,24.1188 142.8547,24.9208 142.3277,25.5558 C141.7977,26.1958 141.0087,26.5848 140.1937,26.7048 C139.3197,26.8358 138.3987,26.7728 137.5807,26.4208 C136.6987,26.0478 136.0147,25.2838 135.6547,24.4058 C135.2217,23.3588 135.1357,22.1988 135.2217,21.0788 C135.3047,19.9948 135.6117,18.8818 136.3277,18.0388 C136.9807,17.2518 137.9837,16.8168 138.9937,16.7598" id="Fill-31" fill="#FEFEFE"></path>
          <g id="Group-35" transform="translate(162.000000, 16.502300)">
            <mask id="mask-10" fill="white">
              <use xlink:href="#path-9"></use>
            </mask>
            <g id="Clip-34"></g>
            <path d="M0.6241,0.5812 C1.8331,0.5852 3.0431,0.5482 4.2521,0.5982 L4.2521,9.7282 C3.4521,10.2642 2.3461,10.4772 1.4751,9.9892 C0.9551,9.7022 0.7531,9.0872 0.6861,8.5332 C0.5751,7.5912 0.6451,6.6422 0.6261,5.6972 C0.6251,3.9912 0.6291,2.2862 0.6241,0.5812" id="Fill-33" fill="#FEFEFE" mask="url(#mask-10)"></path>
          </g>
          <path d="M0.0001,19.6123 C5.6291,19.6143 11.2591,19.6113 16.8891,19.6143 C16.8901,25.2443 16.8891,30.8723 16.8891,36.5023 L0.0001,36.5023 L0.0001,19.6123 Z" id="Fill-36" fill="#35A0D9"></path>
          <path d="M18.6143,19.6143 C24.2433,19.6123 29.8723,19.6133 35.5023,19.6133 L35.5023,36.5023 L18.6133,36.5023 C18.6143,30.8723 18.6123,25.2433 18.6143,19.6143" id="Fill-38" fill="#FCB813"></path>
        </g>
      </g>
    </g>
  </g>
</svg>
