<?xml version="1.0" encoding="UTF-8"?>
<svg xmlns="http://www.w3.org/2000/svg" xmlns:xlink="http://www.w3.org/1999/xlink" width="144px" height="53px" viewBox="0 0 144 53">
  <!-- Generator: Sketch 52.6 (67491) - http://www.bohemiancoding.com/sketch -->
  <title>Group 43</title>
  <desc>Created with Sketch.</desc>
  <defs>
    <polygon id="path-1" points="0 0.128966667 39.6068541 0.128966667 39.6068541 52.3690476 0 52.3690476"></polygon>
    <polygon id="path-3" points="0.356793013 0.447534524 10.9351965 0.447534524 10.9351965 14.1877845 0.356793013 14.1877845"></polygon>
  </defs>
  <g id="Visual-Design" stroke="none" stroke-width="1" fill="none" fill-rule="evenodd">
    <g id="home" transform="translate(-44.000000, -2297.000000)">
      <g id="Group-43" transform="translate(44.000000, 2297.000000)">
        <g id="Group-3" transform="translate(0.000000, 0.623570)">
          <mask id="mask-2" fill="white">
            <use xlink:href="#path-1"></use>
          </mask>
          <g id="Clip-2"></g>
          <path d="M39.6068541,45.96955 C39.6068541,47.6977286 38.9006882,48.6965262 37.5248279,49.2315738 C32.1716751,51.3023595 25.8350463,52.3693 19.8040245,52.3693 C13.7761467,52.3693 7.4363738,51.3023595 2.08384978,49.2315738 C0.706731878,48.6965262 -6.28820961e-05,47.6977286 -6.28820961e-05,45.96955 L-6.28820961e-05,0.128966667 L39.6068541,0.128966667 L39.6068541,45.96955" id="Fill-1" fill="#0030AC" mask="url(#mask-2)"></path>
        </g>
        <path d="M10.6227354,28.6879536 C5.13878777,25.2524179 3.32904105,23.7318226 3.17372227,21.4805845 C3.14856943,21.0199893 3.25169607,20.2502274 3.44285764,19.698775 L2.92659563,19.3561679 C2.51094498,20.0142512 2.24935546,20.8849655 2.24935546,21.6843821 C2.24935546,22.9860369 2.66437729,23.9728464 3.17372227,24.7590131 C3.94402795,25.9477274 4.75520699,26.6972988 6.75108472,28.1970726 C8.90228122,29.8186202 10.3693205,31.7089536 11.2169712,33.6869893 L11.5219493,33.6869893 L11.5219493,31.4420607 C14.4289886,33.0957869 16.9920629,34.6555012 18.2522201,37.439894 L18.5565694,37.439894 C18.0635738,34.5539179 16.4387004,32.3298107 10.6227354,28.6879536" id="Fill-4" fill="#FFD420"></path>
        <path d="M26.7153956,21.1788 C25.5162341,21.7170024 24.6880769,22.451431 23.9504699,23.5007048 L26.4035004,23.3738833 C26.4909066,22.2804429 26.6342777,21.5548476 26.7153956,21.1788 Z M35.5503301,29.9572405 C35.7955703,29.354681 35.9540332,28.7779905 35.9974218,28.0473476 L32.4169153,27.842919 C32.2559371,28.8486571 31.9880594,29.724419 31.7032035,30.439919 L35.5503301,29.9572405 Z M31.6736489,21.0380976 C31.9314655,21.7321452 32.1245135,22.4009548 32.2653694,23.0483119 L34.3731773,22.9315857 C33.6487755,22.0968357 32.7237799,21.4381214 31.6736489,21.0380976 Z M30.7159546,23.1347524 C30.3575266,21.8842048 29.9267843,21.0166452 29.702924,20.6103119 L29.2658934,20.5945381 C29.0244262,20.5945381 28.7785572,20.6286095 28.5433782,20.6519548 C28.196269,21.5264548 27.9139284,22.4085262 27.6806358,23.3013238 L30.7159546,23.1347524 Z M32.474138,24.2673119 C32.5860681,25.1657881 32.5986445,26.0118952 32.5395354,26.7917524 L35.9873607,26.6087762 C35.8968105,25.8226095 35.6748367,25.0787167 35.343448,24.39855 L32.474138,24.2673119 Z M31.3026445,26.8554786 C31.2680594,25.8730857 31.1460681,24.982181 30.9806882,24.1960143 L27.5039371,24.0370143 C27.2649852,25.1020619 27.1077799,26.1361929 27.033579,27.0813595 L31.3026445,26.8554786 Z M31.8384,19.39005 L32.2452472,18.8146214 L31.6132821,17.9685143 L31.7195528,17.7830143 L33.4953432,18.7439548 L33.1086183,19.92005 C33.3941031,20.0601214 33.657579,20.2336333 34.0097188,20.4683476 L35.1566882,18.5761214 L32.1848803,17.0170381 L25.6199895,17.0170381 L20.2907319,20.2336333 C21.2930725,20.9302048 22.2130376,21.6848238 22.8676402,22.4444905 C24.2950638,20.3585619 26.8046882,19.0304071 29.2879022,19.0304071 C30.1009677,19.0304071 31.0460856,19.1162167 31.8384,19.39005 Z M18.7017013,19.2007643 L21.6433258,17.4322048 C21.0660681,17.1451214 20.427186,16.9608833 19.6694568,16.951419 C18.657055,16.9356452 16.9428891,17.401919 16.1166183,17.5300024 C16.4863651,17.7830143 17.8006009,18.6253357 18.7017013,19.2007643 Z M19.3041118,12.5385381 C18.2608978,12.3082405 17.6786096,12.4375857 17.0793432,13.0111214 C17.371745,13.1524548 17.7389764,13.2300619 18.14771,13.1997762 C18.7325135,13.1593952 19.0959721,12.805431 19.3041118,12.5385381 Z M35.8798323,37.4428595 L35.5100856,37.4428595 C35.5100856,35.3891095 33.633055,34.8313476 31.6686183,34.8313476 L25.5262952,34.8313476 C25.7250026,35.8433952 25.8180681,37.0295857 25.6627493,38.1488952 L25.3584,38.1488952 C24.789317,33.5347405 22.1904,31.2462762 18.5564437,28.7994429 L18.5564437,30.8986214 L18.2527231,30.8986214 C17.2881118,28.7357167 15.1664699,26.7002643 13.1567581,25.259169 C12.6222603,24.87555 12.0688978,24.4793119 11.5218236,24.0874905 L11.5218236,26.3526095 L11.2174742,26.3526095 C10.364793,24.1051571 8.81789345,22.4306095 6.61324716,20.436169 C4.23315983,18.2827286 3.27043493,16.9968476 2.71455721,15.5166333 C2.37625153,14.620681 2.28004192,13.8950857 2.26809432,12.9108 C2.24608559,11.1510738 3.13272314,9.55791905 4.23819039,8.96608571 L4.23819039,9.81787143 C3.69111616,10.5466214 3.40688908,11.4684429 3.40500262,12.4054071 C3.40311616,13.269181 3.60811179,14.2288595 4.03633886,15.0490976 C5.38012926,17.6132881 9.89569258,20.7548 12.763745,22.6842524 C21.6823127,28.6877643 23.4637624,29.7345143 24.9446358,32.9201929 C25.1100157,33.2747881 25.2735092,33.7543119 25.4093345,34.3063952 C26.6977886,34.1051214 31.3737013,33.3927762 32.2345572,33.2552286 C32.4005659,33.2299905 32.7451598,33.1870857 32.9243738,33.1738357 C33.728007,32.6640262 34.3593432,32.0147762 34.9095616,31.2008476 L31.4931773,30.9345857 C31.315221,31.327669 31.1397799,31.6582881 30.9863476,31.92455 L30.7077799,31.92455 C30.8002166,31.5756333 30.883221,31.2330262 30.9517624,30.8954667 L30.0764437,30.8279548 L30.0764437,30.6424548 L31.0247057,30.5244667 C31.2051773,29.553431 31.2906969,28.6360262 31.3101904,27.7804548 L27.0033956,27.5337524 C26.9801293,27.97605 26.9769852,28.3950024 26.9901904,28.7830381 L26.7128803,28.7830381 C26.6235878,28.3508357 26.5512734,27.922419 26.4959371,27.5034667 L25.5508192,27.4510976 L25.5508192,27.1608595 L26.4481467,27.1135381 C26.3223825,25.9677286 26.3154655,24.9007881 26.3619983,23.9865381 L23.8423127,23.8704429 C23.9630463,24.093169 24.0850376,24.3158952 24.1737013,24.5638595 C24.715745,26.0857167 24.5862079,27.8713119 24.4069939,28.6947048 L24.1026445,28.6947048 C24.0561118,27.7444905 23.7398148,26.5791214 23.4360943,25.8667762 C22.7406183,24.2193595 21.1761118,22.7650143 18.5564437,21.0740619 L18.5564437,23.180181 L18.2527231,23.180181 C17.3805485,20.4159786 15.2142603,18.8783476 11.9884087,17.216419 C9.32786725,15.8459905 8.50096769,14.195419 8.65251354,11.6388 L9.54984105,12.1738476 C9.78061834,14.5632643 11.6111162,15.9437881 13.5246183,15.9286452 C14.6520943,15.9198119 15.7104,15.7683833 16.7297188,15.5626929 C18.2055616,15.2655143 19.5694742,15.0106095 20.7063825,15.4137881 L20.7063825,14.0048714 L19.8121991,14.0048714 C19.4921293,14.2812286 18.8444437,14.6036452 17.8905223,14.6175262 C16.8397624,14.6377167 14.8539459,14.0301095 14.8539459,11.8060024 C14.8539459,9.87213333 16.4844786,9.56170476 17.8125485,9.56170476 C18.5243738,9.56170476 19.7059284,9.53772857 20.1046009,9.51438333 C20.4032908,9.4935619 20.6252646,9.45002619 20.7698934,9.3068 C20.9195528,9.15789524 20.9660856,9.00457381 21.0006707,8.80897857 C21.0421729,8.56921667 21.0421729,8.32440714 21.0421729,7.90797857 L21.0421729,6.4965381 L14.888531,6.4965381 L14.888531,8.94210952 L12.560007,8.05246667 L12.560007,7.46757381 L13.6742777,7.46757381 L13.6742777,6.4965381 L9.52343057,6.4965381 L9.52343057,4.46487143 L8.10858341,4.46487143 C7.35085415,4.46487143 6.4793083,4.99676429 6.41705502,6.02584762 C6.35794585,7.01644286 6.80063581,7.84677619 7.81555284,7.84677619 L7.99791092,7.84677619 L7.99791092,9.03296667 L7.81555284,9.03296667 C6.03787598,9.03296667 4.69974498,7.6915619 4.69974498,5.91669286 C4.69974498,4.06358571 6.2724262,2.65277619 8.17398079,2.65277619 L11.1734568,2.65277619 L11.1734568,4.68444286 L22.8475179,4.68444286 L22.8475179,7.68272857 C22.8475179,8.19127619 22.8211074,8.86955 22.7714306,9.29796667 C22.7368454,9.61218095 22.6268017,10.1743595 22.03571,10.6242286 C21.681055,10.8980619 21.1452996,11.0059548 20.2737537,11.0097405 C19.9895266,11.0128952 19.1613694,10.9990143 18.16909,10.9352881 C16.8397624,10.8507405 16.4630987,11.3668595 16.4090201,11.8444905 L16.4090201,12.1366214 C17.0315528,11.6539429 17.912531,11.3132286 18.913614,11.6287048 C20.6755703,12.1858357 21.1779983,12.234419 22.0960769,11.5126095 L22.1872559,11.7183 C22.0897886,11.8697286 21.9118323,12.0930857 21.6546445,12.2867881 L22.5060681,12.2867881 L22.5060681,16.9123 L25.154662,15.3197762 L32.5879546,15.3197762 C32.5879546,15.3197762 35.7320594,16.964669 36.2464349,17.2397643 C36.7061031,17.4795262 36.8859459,17.7697643 36.9563738,18.198181 C37.0135965,18.5527762 36.9211598,19.005169 36.7476052,19.2954071 C36.6369328,19.4777524 35.7842515,20.8816214 35.3333869,21.6311929 C36.5960594,23.0047762 37.4506271,24.9216095 37.4506271,27.061169 C37.4506271,28.9988238 36.7344,31.4973952 34.4153083,33.356181 C35.4358847,33.6899548 36.0886009,34.2470857 36.6029764,34.9827762 L35.8798323,37.4428595 Z" id="Fill-6" fill="#FFD420"></path>
        <path d="M20.0341729,47.3626929 L18.6293869,47.3626929 L18.6293869,43.3214429 L19.9712908,43.3214429 C21.8168803,43.3214429 22.5249328,43.8728952 22.5249328,45.2603595 C22.5249328,46.7601333 21.5999371,47.3626929 20.0341729,47.3626929 Z M19.9241293,39.3432881 C21.0384,39.3432881 21.7961293,39.5868357 21.7961293,40.7812286 C21.7961293,42.0570143 20.781841,42.4053 19.6266969,42.4053 L18.6293869,42.4053 L18.6293869,39.3432881 L19.9241293,39.3432881 Z M22.1690201,42.7523238 C23.1657013,42.5889071 24.1196227,41.80905 24.1196227,40.6310619 C24.1196227,39.5679071 23.6706445,38.4019071 20.5529502,38.4019071 L15.2916052,38.4019071 L15.2916052,38.4864548 C15.4519546,38.5350381 15.703483,38.6650143 15.8669764,38.8290619 C16.2247755,39.1779786 16.3436227,39.7010381 16.3593432,40.3963476 L16.3593432,48.300919 L20.7195878,48.300919 C23.1172821,48.300919 24.8540856,47.3828833 24.8540856,45.279919 C24.8540856,43.5687762 23.5279022,42.8400262 22.1690201,42.7523238 Z" id="Fill-8" fill="#FEFEFE"></path>
        <path d="M7.35890306,39.345181 L8.89385502,39.345181 C10.1709904,39.345181 10.8381694,39.7199667 10.8381694,41.0815619 C10.8381694,42.298669 9.96662358,43.0185857 8.56812576,43.0185857 L7.35890306,43.0185857 L7.35890306,39.345181 Z M11.4116541,48.300919 L14.2514096,48.300919 L10.6205974,43.6432286 C12.0744314,43.2551929 13.164807,42.4557762 13.164807,41.0058476 C13.164807,39.3035381 12.1505188,38.4038 9.4931214,38.4038 L4.00477205,38.4038 L4.00477205,38.4864548 C4.20536594,38.5590143 4.43362795,38.6889905 4.58140087,38.8372643 C4.96498166,39.2170976 5.08068472,39.795681 5.08068472,40.5805857 L5.08068472,48.300919 L7.35890306,48.300919 L7.35890306,43.9132762 L8.19083319,43.9132762 L11.4116541,48.300919 Z" id="Fill-10" fill="#FEFEFE"></path>
        <path d="M34.0668786,39.758581 C34.6793502,40.103081 34.8642236,40.5567357 34.8673677,40.5617833 L34.9616908,40.5857595 L35.4559441,38.8929143 C35.4559441,38.8929143 34.5661624,38.2493429 32.446407,38.2493429 C29.2400489,38.2493429 26.8392105,39.8702595 26.8392105,43.4174738 C26.8392105,47.4151881 29.699717,48.4524738 32.2206603,48.4524738 C34.5661624,48.4524738 35.488014,47.7035333 35.488014,47.7035333 L35.488014,46.5444738 C35.488014,46.5444738 34.6585991,47.3186524 32.8821799,47.3186524 C31.4157694,47.3186524 29.2601712,46.647319 29.2136384,43.361319 C29.1708786,40.3251762 30.4907738,39.3383667 32.2571319,39.3383667 C33.2406079,39.3383667 33.7329747,39.5692952 34.0668786,39.758581" id="Fill-12" fill="#FEFEFE"></path>
        <path d="M51.4537153,19.619275 L51.4537153,24.1255369 L52.950938,24.1255369 C54.6581869,24.1255369 55.7328419,23.2409417 55.7328419,21.738644 C55.7328419,20.0786083 54.9046847,19.619275 53.3395493,19.619275 L51.4537153,19.619275 Z M56.4377502,30.5883821 L52.476807,25.2183464 L51.4537153,25.2183464 L51.4537153,30.5883821 L48.6736978,30.5883821 L48.6736978,21.1215726 C48.6736978,20.042644 48.5510777,19.4438702 48.0769467,18.9662393 C47.8813834,18.7889417 47.6172786,18.6469774 47.3707808,18.559275 L47.3707808,18.453275 L54.0777852,18.453275 C57.3338201,18.453275 58.5832873,19.5687988 58.5832873,21.6515726 C58.5832873,23.434644 57.246414,24.4050488 55.4706236,24.8826798 L59.9038114,30.5883821 L56.4377502,30.5883821 Z" id="Fill-14" fill="#0030AC"></path>
        <path d="M67.3879127,26.2954452 C67.3879127,23.97985 66.3685939,22.7987071 64.9946201,22.7987071 C63.6407686,22.7987071 62.6183057,23.97985 62.6183057,26.2954452 C62.6183057,28.6091476 63.6407686,29.7921833 64.9946201,29.7921833 C66.3685939,29.7921833 67.3879127,28.6091476 67.3879127,26.2954452 M70.1528384,26.2954452 C70.1528384,28.8571119 68.004786,30.7266238 64.9946201,30.7266238 C62.00269,30.7266238 59.856524,28.8571119 59.856524,26.2954452 C59.856524,23.7350405 62.00269,21.8623738 64.9946201,21.8623738 C68.004786,21.8623738 70.1528384,23.7350405 70.1528384,26.2954452" id="Fill-16" fill="#0030AC"></path>
        <path d="M79.8219039,22.0038333 C76.372821,28.9802738 75.6157205,30.4989762 75.6157205,30.4989762 C74.771214,32.2303095 73.8732576,33.4840119 73.1865852,34.2266429 C72.9583231,34.4563095 72.6049258,34.8254167 72.1138166,35.2696071 L70.7549345,34.2266429 C71.8836681,33.5717143 72.5344978,32.8650476 73.0809432,32.3199048 C73.7317729,31.6479405 74.135476,31.030869 74.5240873,30.2156786 L70.1581834,22.0038333 L73.152,22.0038333 L75.8980611,27.4786071 L77.9027424,23.2051667 C78.0272489,22.9382738 77.9901485,22.6739048 77.9027424,22.5155357 C77.7637729,22.2852381 77.60531,22.1981667 77.4103755,22.1098333 L77.4808035,22.0038333 L79.8219039,22.0038333" id="Fill-18" fill="#0030AC"></path>
        <path d="M86.1236332,28.8383095 L86.1236332,25.9239405 C85.2967336,26.1536071 84.4352489,26.3826429 84.4352489,26.3826429 C82.903441,26.8079048 82.6223581,27.7259405 82.6726638,28.4837143 C82.7298865,29.1575714 83.237345,29.7020833 84.118952,29.66675 C84.8049956,29.6503452 85.3501834,29.4036429 86.1236332,28.8383095 M84.9445939,21.8599762 C87.5850131,21.8599762 88.7307249,22.7092381 88.7307249,24.0342381 L88.7307249,30.5854167 L86.159476,30.5854167 L86.159476,29.7210119 C85.4577118,30.3406071 84.4886987,30.72675 83.1134672,30.72675 C81.1452576,30.72675 79.9630742,29.8270119 79.9630742,28.5190476 C79.9630742,27.4426429 80.297607,26.2955714 83.5372926,25.5693452 L86.1236332,24.9857143 L86.1236332,23.9799762 C86.1236332,23.027869 85.5080175,22.7092381 84.593083,22.7092381 C84.1900087,22.7092381 83.7322271,22.7969405 83.3958079,23.0095714 C83.0254323,23.2575357 82.8135197,23.6285357 82.8135197,24.1049048 L82.8512489,24.6349048 L80.5453624,24.352869 L80.4390917,23.8582024 C80.4390917,22.6202738 82.3764891,21.8599762 84.9445939,21.8599762" id="Fill-20" fill="#0030AC"></path>
        <path d="M93.7830498,30.5851643 L91.1967092,30.5851643 L91.1967092,19.4406524 C91.1967092,18.5409143 91.0382463,17.8336167 90.5804646,17.3761762 C90.4056524,17.1995095 90.1233118,17.0386167 89.8774428,16.9515452 L89.8774428,16.8449143 L93.7830498,16.8449143 L93.7830498,30.5851643" id="Fill-22" fill="#0030AC"></path>
        <path d="M104.701457,29.4372095 C106.622505,29.4372095 107.764444,28.6964714 107.764444,26.8591381 C107.764444,25.1631381 106.884723,24.4930667 104.631029,24.4930667 L102.975972,24.4930667 L102.975972,29.4372095 L104.701457,29.4372095 Z M104.578837,19.6176976 L102.975972,19.6176976 L102.975972,23.3624 L104.207203,23.3624 C105.616391,23.3624 106.863972,22.9384 106.863972,21.3673286 C106.863972,19.9009952 105.932688,19.6176976 104.578837,19.6176976 Z M107.32364,23.785769 C108.978697,23.8924 110.616776,24.7934 110.616776,26.8774357 C110.616776,29.4574 108.48633,30.5849119 105.545963,30.5849119 L100.195955,30.5849119 L100.195955,20.9067333 C100.195955,20.0410667 100.036234,19.4069595 99.5992035,18.9816976 C99.4036402,18.7886262 99.0873432,18.6283643 98.8924087,18.5576976 L98.8924087,18.4535905 L105.337824,18.4535905 C109.155396,18.4535905 109.716933,19.8820667 109.716933,21.1906619 C109.716933,22.6386976 108.53978,23.5914357 107.32364,23.785769 Z" id="Fill-24" fill="#0030AC"></path>
        <path d="M118.013534,28.8383095 L118.013534,25.9239405 C117.184748,26.1536071 116.323263,26.3826429 116.323263,26.3826429 C114.790826,26.8079048 114.510372,27.7259405 114.562564,28.4837143 C114.614756,29.1575714 115.125359,29.7020833 116.005708,29.66675 C116.69301,29.6503452 117.241341,29.4036429 118.013534,28.8383095 M116.834494,21.8599762 C119.474914,21.8599762 120.618739,22.7092381 120.618739,24.0342381 L120.618739,30.5854167 L118.045603,30.5854167 L118.045603,29.7210119 C117.342582,30.3406071 116.375455,30.72675 115.003368,30.72675 C113.030128,30.72675 111.852975,29.8270119 111.852975,28.5190476 C111.852975,27.4426429 112.187507,26.2955714 115.425307,25.5693452 L118.013534,24.9857143 L118.013534,23.9799762 C118.013534,23.027869 117.399176,22.7092381 116.481097,22.7092381 C116.076136,22.7092381 115.616468,22.7969405 115.283822,23.0095714 C114.915333,23.2575357 114.70342,23.6285357 114.70342,24.1049048 L114.739263,24.6349048 L112.434634,24.352869 L112.327106,23.8582024 C112.327106,22.6202738 114.264503,21.8599762 116.834494,21.8599762" id="Fill-26" fill="#0030AC"></path>
        <path d="M129.156115,21.8621214 C130.965862,21.8621214 131.971347,22.6735262 131.971347,24.1758238 L131.971347,30.5881929 L129.384377,30.5881929 L129.384377,24.5114905 C129.384377,23.4868238 129.066194,23.0634548 128.237408,23.0634548 C127.412395,23.0634548 126.952727,23.3454905 125.687539,24.3884548 L125.687539,30.5881929 L123.116919,30.5881929 L123.116919,24.5991929 C123.116919,23.7164905 122.959714,22.9927881 122.498788,22.5353476 C122.325862,22.3561571 122.042893,22.1977881 121.797652,22.1100857 L121.797652,22.0040857 L125.687539,22.0040857 L125.687539,23.4161571 C126.952727,22.25205 127.800377,21.8621214 129.156115,21.8621214" id="Fill-28" fill="#0030AC"></path>
        <g id="Group-32" transform="translate(132.681223, 16.397380)">
          <mask id="mask-4" fill="white">
            <use xlink:href="#path-3"></use>
          </mask>
          <g id="Clip-31"></g>
          <path d="M4.24793712,14.1877845 L1.67668821,14.1877845 L1.67668821,3.04327262 C1.67668821,2.14353452 1.52011179,1.4362369 1.06107249,0.978796429 C0.886260262,0.802129762 0.60329083,0.641236905 0.356793013,0.554165476 L0.356793013,0.447534524 L4.24793712,0.447534524 L4.24793712,14.1877845 Z M6.85377118,9.10104643 L10.935448,14.1877845 L7.6794131,14.1877845 L4.24793712,9.8607131 L6.74750044,7.49527262 C7.36311616,6.91290357 7.55679301,6.50593929 7.55679301,6.13430833 C7.57314236,5.95764167 7.45052227,5.80053452 7.29268821,5.71220119 L7.29268821,5.60430833 L10.6355004,5.60430833 L6.85377118,9.10104643 Z" id="Fill-30" fill="#0030AC" mask="url(#mask-4)"></path>
        </g>
        <path d="M51.4537153,1.91689643 L53.3395493,1.91689643 C54.9046847,1.91689643 55.7328419,2.37622976 55.7328419,4.03626548 C55.7328419,5.53793214 54.6600734,6.42252738 52.9540821,6.42252738 L51.4537153,6.42252738 L51.4537153,1.91689643 Z M48.6755843,3.4185631 L48.6755843,12.8860036 L51.4537153,12.8860036 L51.4537153,7.51596786 L52.476807,7.51596786 L56.4377502,12.8860036 L59.9038114,12.8860036 L55.4706236,7.18219405 C57.246414,6.70645595 58.5851738,5.73226548 58.5851738,3.9485631 C58.5851738,1.86642024 57.3369642,0.752158333 54.0777852,0.752158333 L47.3707808,0.752158333 L47.3707808,0.856896429 C47.6191651,0.94459881 47.8832699,1.0865631 48.0769467,1.26386071 C48.5510777,1.74149167 48.6755843,2.34215833 48.6755843,3.4185631 Z" id="Fill-33" fill="#0030AC"></path>
        <path d="M64.8855825,6.79195 L66.5406393,6.79195 C68.7943336,6.79195 69.6753118,7.46328333 69.6753118,9.15991429 C69.6753118,10.9940929 68.5314865,11.734831 66.6110672,11.734831 L64.8855825,11.734831 L64.8855825,6.79195 Z M64.8855825,1.91658095 L66.4884472,1.91658095 C67.8435563,1.91658095 68.7767266,2.20050952 68.7767266,3.66495 C68.7767266,5.23791429 67.5253729,5.66128333 66.1180716,5.66128333 L64.8855825,5.66128333 L64.8855825,1.91658095 Z M62.1049362,3.20750952 L62.1049362,12.8856881 L67.4555738,12.8856881 C70.3953118,12.8856881 72.5238707,11.7550214 72.5238707,9.17631905 C72.5238707,7.09291429 70.8895651,6.18939048 69.2345083,6.08654524 C70.4493904,5.8922119 71.6265432,4.93758095 71.6265432,3.48954524 C71.6265432,2.18158095 71.0643773,0.75247381 67.2430323,0.75247381 L60.8020192,0.75247381 L60.8020192,0.857211905 C60.9963249,0.927878571 61.3126218,1.08624762 61.505041,1.28247381 C61.9471022,1.70584286 62.1049362,2.33995 62.1049362,3.20750952 Z" id="Fill-35" fill="#0030AC"></path>
        <path d="M80.9032873,13.1322643 C80.9032873,13.1322643 83.7725974,13.1322643 84.8988157,12.2142286 L84.8988157,10.8002643 C83.8801258,11.7347048 81.7119511,11.7347048 81.7119511,11.7347048 C79.9009467,11.7347048 77.2768769,10.9233 77.2064489,6.89845476 C77.1529991,3.17268095 78.7740996,1.97134762 80.9403878,1.97134762 C82.154641,1.97134762 82.7501345,2.25275238 83.1569817,2.4817881 C83.9140821,2.90768095 84.1423441,3.45219286 84.1423441,3.47049048 L84.2467284,3.48941905 L84.8642306,1.42368095 C83.7725974,0.631204762 81.1655057,0.631204762 81.1655057,0.631204762 C77.2422917,0.631204762 74.3019249,2.62375238 74.3019249,6.96912143 C74.3019249,11.8627881 77.8050865,13.1322643 80.9032873,13.1322643" id="Fill-37" fill="#0030AC"></path>
        <polygon id="Fill-39" fill="#0030AC" points="40.9642271 47.6196167 42.7444192 47.6196167 42.7444192 47.9533905 42.0451703 47.9533905 42.0451703 49.8260571 41.6603319 49.8260571 41.6603319 47.9533905 40.9642271 47.9533905"></polygon>
        <polygon id="Fill-41" fill="#0030AC" points="42.994124 47.6196167 43.5361677 47.6196167 44.1429799 49.3471643 44.1492681 49.3471643 44.7403598 47.6196167 45.2761153 47.6196167 45.2761153 49.8260571 44.9101415 49.8260571 44.9101415 48.1231167 44.9038533 48.1231167 44.2938969 49.8260571 43.9763424 49.8260571 43.3670148 48.1231167 43.3607266 48.1231167 43.3607266 49.8260571 42.994124 49.8260571"></polygon>
      </g>
    </g>
  </g>
</svg>
