<?xml version="1.0" encoding="UTF-8"?>
<svg xmlns="http://www.w3.org/2000/svg" xmlns:xlink="http://www.w3.org/1999/xlink" viewBox="0 0 400 400">
  <defs>
    <style>.cls-1{fill:#085289;}.cls-2{fill:url(#linear-gradient);}.cls-3{fill:#0a9ca6;}.cls-4{fill:#d01778;}.cls-5{fill:#ffc40c;}.cls-6{fill:#00abe6;}.cls-7{fill:none;stroke:#8b8b8f;stroke-linecap:round;stroke-miterlimit:10;stroke-width:4px;}</style>
    <linearGradient id="linear-gradient" x1="200.13" y1="96.75" x2="200.13" y2="304.96" gradientUnits="userSpaceOnUse">
      <stop offset="0" stop-color="#e9e9e2"></stop>
      <stop offset="0.01" stop-color="#ecece5"></stop>
      <stop offset="0.1" stop-color="#f7f7f4"></stop>
      <stop offset="0.2" stop-color="#fdfdfc"></stop>
      <stop offset="0.36" stop-color="#fff"></stop>
      <stop offset="0.79" stop-color="#f1f1ed"></stop>
      <stop offset="1" stop-color="#e9e9e2"></stop>
    </linearGradient>
  </defs>
  <g id="bg_colors" data-name="bg colors">
    <circle class="cls-1" cx="200" cy="200" r="200"></circle>
  </g>
  <g id="art">
    <path class="cls-2" d="M291.33,304.55H108.92c-21.15-70.21,21.16-139,0-209.23H291.33C312.48,165.54,270.17,234.34,291.33,304.55Z"></path>
    <path class="cls-3" d="M160.53,136.9h-22.8a113.66,113.66,0,0,0-2.21-22.8h22.8A113.66,113.66,0,0,1,160.53,136.9Z"></path>
    <path class="cls-3" d="M193.39,136.9h-22.8a113.66,113.66,0,0,0-2.21-22.8h22.8A113.66,113.66,0,0,1,193.39,136.9Z"></path>
    <path class="cls-4" d="M178.84,177.14h0c-6.29,0-10.57-5.11-9.78-11.4h0a13,13,0,0,1,12.57-11.4h0a10,10,0,0,1,10.23,11.4h0A13.51,13.51,0,0,1,178.84,177.14Z"></path>
    <path class="cls-4" d="M145.76,177.14h0c-6.3,0-10.57-5.11-9.79-11.4h0a13,13,0,0,1,12.57-11.4h0a10,10,0,0,1,10.24,11.4h0A13.51,13.51,0,0,1,145.76,177.14Z"></path>
    <path class="cls-4" d="M211.92,177.14h0c-6.29,0-10.56-5.11-9.78-11.4h0a13,13,0,0,1,12.57-11.4h0a10,10,0,0,1,10.23,11.4h0A13.5,13.5,0,0,1,211.92,177.14Z"></path>
    <path class="cls-4" d="M245,177.14h0c-6.3,0-10.57-5.11-9.79-11.4h0a13,13,0,0,1,12.57-11.4h0A10,10,0,0,1,258,165.74h0A13.5,13.5,0,0,1,245,177.14Z"></path>
    <path class="cls-3" d="M226.25,136.9h-22.8a113.66,113.66,0,0,0-2.21-22.8H224A113.66,113.66,0,0,1,226.25,136.9Z"></path>
    <path class="cls-5" d="M150,193H135.55c-3.79,5-5.7,7.5-9.5,12.5,2,5,3,7.5,5,12.5h14.44c3.72-5,5.61-7.5,9.41-12.5C152.94,200.5,152,198,150,193Z"></path>
    <path class="cls-5" d="M186,193H171.55c-3.79,5-5.7,7.5-9.5,12.5,2,5,3,7.5,5,12.5h14.44c3.72-5,5.61-7.5,9.41-12.5C188.94,200.5,188,198,186,193Z"></path>
    <path class="cls-6" d="M133.22,233.82c-5.6,7.81-11,15.91-15.91,24.18h28.2A254.85,254.85,0,0,1,133.22,233.82Z"></path>
    <path class="cls-6" d="M174.78,233.57c-5.61,7.81-11,15.91-15.93,24.17h28.2A256.83,256.83,0,0,1,174.78,233.57Z"></path>
    <path class="cls-6" d="M214,233.57c-5.61,7.81-11,15.91-15.93,24.17h28.2A256.83,256.83,0,0,1,214,233.57Z"></path>
    <path class="cls-7" d="M225.18,264.5h-105a11.74,11.74,0,0,1-11.87-12c.19-4.4.36-6.6.78-11,.64-6.6,6.83-12,13.43-12h105c6.6,0,11.21,5.4,10.57,12-.42,4.4-.59,6.6-.78,11A12.35,12.35,0,0,1,225.18,264.5Z"></path>
    <path class="cls-7" d="M245,177.14c-1.4,8.91-2.25,13.37-3.88,22.28a10.46,10.46,0,0,1-9.85,8.33H217.76a10.36,10.36,0,0,0-9.76,8.11c-1.07,5.46-1.58,8.19-2.48,13.64"></path>
  </g>
</svg>
