<?xml version="1.0" encoding="UTF-8"?>
<svg xmlns="http://www.w3.org/2000/svg" xmlns:xlink="http://www.w3.org/1999/xlink" width="107px" height="18px" viewBox="0 0 107 18">
  <!-- Generator: Sketch 52.5 (67469) - http://www.bohemiancoding.com/sketch -->
  <title>Group 11</title>
  <desc>Created with Sketch.</desc>
  <defs>
    <polygon id="path-1" points="5.97765363e-05 0.52458 12.6547525 0.52458 12.6547525 17.4 5.97765363e-05 17.4"></polygon>
    <polygon id="path-3" points="0 17.47554 106.525972 17.47554 106.525972 0.59994 0 0.59994"></polygon>
  </defs>
  <g id="Visual-Design" stroke="none" stroke-width="1" fill="none" fill-rule="evenodd">
    <g id="Solutions-by-Business-Function" transform="translate(-374.000000, -891.000000)">
      <g id="Group-11" transform="translate(374.000000, 891.000000)">
        <g id="Group-3" transform="translate(0.000000, 0.075540)">
          <mask id="mask-2" fill="white">
            <use xlink:href="#path-1"></use>
          </mask>
          <g id="Clip-2"></g>
          <path d="M11.4257469,1.10418 L11.4257469,4.22418 C9.94747318,3.70518 8.32872458,3.40218 7.0375514,3.40218 C5.44510447,3.40218 4.55861844,3.88998 4.55861844,4.76538 C4.55861844,5.32338 4.94656816,5.69358 6.05960726,6.19578 L9.0532162,7.54398 C11.4478642,8.62458 12.6547525,10.20018 12.6547525,12.24678 C12.6547525,15.40698 9.93073575,17.40018 5.61128324,17.40018 C4.03617151,17.40018 2.21418268,17.17338 0.283998324,16.73598 L0.283998324,13.51098 C2.19744525,14.03298 3.9500933,14.31258 5.31299832,14.31258 C7.09852346,14.31258 8.05494804,13.81338 8.05494804,12.88338 C8.05494804,12.32298 7.68194246,11.91198 6.82654022,11.52918 L3.5495905,10.06458 C1.12086983,8.97738 5.97765363e-05,7.51218 5.97765363e-05,5.42418 C5.97765363e-05,2.43198 2.62604302,0.52458 6.7458419,0.52458 C8.18884749,0.52458 9.96480838,0.74418 11.4257469,1.10418" id="Fill-1" fill="#00A1B1" mask="url(#mask-2)"></path>
        </g>
        <mask id="mask-4" fill="white">
          <use xlink:href="#path-3"></use>
        </mask>
        <g id="Clip-5"></g>
        <polygon id="Fill-4" fill="#00A1B1" mask="url(#mask-4)" points="14.9865754 17.14854 19.8278771 17.14854 19.8278771 0.92694 14.9865754 0.92694"></polygon>
        <polygon id="Fill-6" fill="#00A1B1" mask="url(#mask-4)" points="35.568414 0.92688 35.568414 3.89928 28.2595369 3.89928 28.2595369 7.55748 34.6448665 7.55748 34.6448665 10.24488 28.2595369 10.24488 28.2595369 14.03868 35.6628609 14.03868 35.6628609 17.14848 23.5551235 17.14848 23.5551235 0.92688"></polygon>
        <polygon id="Fill-7" fill="#00A1B1" mask="url(#mask-4)" points="58.4402318 0.92688 58.4402318 17.14848 53.7555447 17.14848 53.7555447 6.47148 49.1676955 17.27508 46.2063659 17.27508 41.6490028 6.47148 41.6490028 17.14848 38.4144944 17.14848 38.4144944 0.92688 44.3263939 0.92688 48.5059693 10.79388 52.6640251 0.92688"></polygon>
        <polygon id="Fill-8" fill="#00A1B1" mask="url(#mask-4)" points="74.1929034 0.92688 74.1929034 3.89928 66.8738642 3.89928 66.8738642 7.55748 73.2568028 7.55748 73.2568028 10.24488 66.8738642 10.24488 66.8738642 14.03868 74.2765905 14.03868 74.2765905 17.14848 62.1568978 17.14848 62.1568978 0.92688"></polygon>
        <polygon id="Fill-9" fill="#00A1B1" mask="url(#mask-4)" points="91.246133 0.92688 91.246133 17.14848 86.0802447 17.14848 80.2627922 6.74448 80.2627922 17.14848 77.027686 17.14848 77.027686 0.92688 82.3298648 0.92688 88.0223844 11.19348 88.0223844 0.92688"></polygon>
        <path d="M105.29595,1.17972 L105.29595,4.29972 C103.828436,3.78432 102.199526,3.47772 100.932263,3.47772 C99.3141123,3.47772 98.4288218,3.95772 98.4288218,4.83552 C98.4288218,5.40792 98.7904698,5.75052 99.9417659,6.27132 L102.922822,7.61952 C105.334207,8.71092 106.526151,10.27332 106.526151,12.34392 C106.526151,15.48672 103.799146,17.47572 99.4898553,17.47572 C97.9123525,17.47572 96.0831905,17.24772 94.1547994,16.81152 L94.1547994,13.58652 C96.0670508,14.10792 97.8155145,14.38812 99.1700508,14.38812 C100.943621,14.38812 101.926347,13.88892 101.926347,12.98772 C101.926347,12.39132 101.582034,12.00612 100.685984,11.60472 L97.4221849,10.14012 C94.9779223,9.04332 93.8708609,7.59612 93.8708609,5.50032 C93.8708609,2.50992 96.4974419,0.60072 100.607677,0.60072 C102.054269,0.60072 103.838001,0.81972 105.29595,1.17972" id="Fill-10" fill="#00A1B1" mask="url(#mask-4)"></path>
      </g>
    </g>
  </g>
</svg>
